<svg width="50" height="50" viewBox="0 0 50 50" fill="none" xmlns="http://www.w3.org/2000/svg">
<path d="M48.7101 15.7351C46.9967 14.0216 44.2087 14.0217 42.4947 15.7354C41.9676 16.2631 38.6019 19.6315 38.0877 20.1462V8.5377C38.0877 7.36387 37.6306 6.26035 36.8005 5.43037L32.6574 1.28711C31.8274 0.457031 30.7238 0 29.55 0H4.39629C1.97314 0 0.00175476 1.97139 0.00175476 4.39453V45.6055C0.00175476 48.0286 1.97314 50 4.39629 50H33.6932C36.1163 50 38.0877 48.0286 38.0877 45.6055V32.5812L48.71 21.9499C50.4274 20.2325 50.4278 17.4526 48.7101 15.7351ZM29.2987 2.92969C29.5755 2.92969 30.1088 2.88174 30.5858 3.35869L34.729 7.50195C35.1938 7.96689 35.1581 8.47637 35.1581 8.78906H29.2987V2.92969ZM35.158 45.6055C35.158 46.4132 34.501 47.0703 33.6932 47.0703H4.39629C3.58857 47.0703 2.93144 46.4132 2.93144 45.6055V4.39453C2.93144 3.58682 3.58857 2.92969 4.39629 2.92969H26.3689V10.2539C26.3689 11.0629 27.0248 11.7188 27.8338 11.7188H35.158V23.0784C35.158 23.0784 30.8363 27.4038 30.8361 27.4039L28.7655 29.4746C28.6048 29.6354 28.4835 29.8314 28.4116 30.0472L26.3399 36.262C26.1644 36.7884 26.3015 37.3688 26.6938 37.761C27.0867 38.1539 27.6673 38.2902 28.1929 38.1149L34.4077 36.0434C34.6234 35.9715 34.8195 35.8503 34.9803 35.6895L35.158 35.5117V45.6055ZM31.8728 30.5104L33.9444 32.582L33.1531 33.3733L30.0458 34.4091L31.0815 31.3017L31.8728 30.5104ZM36.0156 30.51L33.944 28.4384C35.0472 27.3344 39.9465 22.4309 40.9855 21.3909L43.0571 23.4625L36.0156 30.51ZM46.638 19.8787L45.1279 21.39L43.0563 19.3185L44.5669 17.8066C45.1384 17.2354 46.0675 17.2355 46.6386 17.8066C47.2096 18.3779 47.2126 19.304 46.638 19.8787Z" fill="#8B93E5"/>
<path d="M27.8338 14.6484H7.32597C6.51699 14.6484 5.86113 15.3043 5.86113 16.1133C5.86113 16.9223 6.51699 17.5781 7.32597 17.5781H27.8338C28.6428 17.5781 29.2986 16.9223 29.2986 16.1133C29.2986 15.3043 28.6428 14.6484 27.8338 14.6484Z" fill="#8B93E5"/>
<path d="M21.9744 20.5078H7.32597C6.51699 20.5078 5.86113 21.1637 5.86113 21.9727C5.86113 22.7816 6.51699 23.4375 7.32597 23.4375H21.9744C22.7834 23.4375 23.4393 22.7816 23.4393 21.9727C23.4393 21.1637 22.7834 20.5078 21.9744 20.5078Z" fill="#8B93E5"/>
<path d="M21.9744 26.3672H7.32597C6.51699 26.3672 5.86113 27.023 5.86113 27.832C5.86113 28.641 6.51699 29.2969 7.32597 29.2969H21.9744C22.7834 29.2969 23.4393 28.641 23.4393 27.832C23.4393 27.023 22.7834 26.3672 21.9744 26.3672Z" fill="#8B93E5"/>
<path d="M21.9744 32.2266H7.32597C6.51699 32.2266 5.86113 32.8824 5.86113 33.6914C5.86113 34.5004 6.51699 35.1562 7.32597 35.1562H21.9744C22.7834 35.1562 23.4393 34.5004 23.4393 33.6914C23.4393 32.8824 22.7834 32.2266 21.9744 32.2266Z" fill="#8B93E5"/>
<path d="M27.8338 41.2109H19.0447C18.2357 41.2109 17.5799 41.8668 17.5799 42.6758C17.5799 43.4848 18.2357 44.1406 19.0447 44.1406H27.8338C28.6428 44.1406 29.2986 43.4848 29.2986 42.6758C29.2986 41.8668 28.6428 41.2109 27.8338 41.2109Z" fill="#8B93E5"/>
</svg>
