<svg width="50" height="50" viewBox="0 0 50 50" fill="none" xmlns="http://www.w3.org/2000/svg">
<g clip-path="url(#clip0)">
<path d="M49.9303 26.6975C49.7511 25.4032 48.417 24.3677 45.918 23.6111C43.8969 23.0037 41.3381 22.6354 38.5504 22.5756V11.9524C38.5504 11.7333 38.4807 11.5242 38.3413 11.355C38.0127 10.2001 36.6786 9.26418 34.3688 8.56725C32.1286 7.89023 29.2015 7.52185 26.125 7.52185C23.0585 7.52185 20.1613 7.89023 17.9709 8.56725C16.1689 9.1248 14.0084 10.1602 14.0084 11.9424C14.0084 12.0519 14.0183 12.1614 14.0382 12.271L14.1477 16.811C7.68618 15.5665 1.44365 19.8177 0.20908 26.2893C0.0696933 27.0161 0 27.7628 0 28.5095C0 35.0806 5.34648 40.4271 11.9176 40.4271C14.6555 40.4271 17.3039 39.4812 19.4345 37.7588C21.3063 38.1969 23.4966 38.4358 25.8164 38.4557C26.3242 41.2136 32.2979 42.478 37.8734 42.478C40.9399 42.478 43.8272 42.0997 46.0374 41.4127C47.8495 40.8552 50 39.8098 50 38.0276V27.0858C50 26.9563 49.9801 26.8169 49.9303 26.6975ZM18.5683 10.4689C20.5794 9.8516 23.2676 9.50313 26.135 9.50313C28.9825 9.50313 31.7702 9.8516 33.8013 10.4689C35.9618 11.126 36.4297 11.803 36.4297 11.9424C36.4297 12.0818 35.9618 12.7688 33.7913 13.4159C31.7702 14.0232 28.9825 14.3817 26.135 14.3817C23.3871 14.3817 20.7786 14.0631 18.7973 13.4856C16.6567 12.8683 16.0593 12.1813 16.0096 11.9623C16.0096 11.9424 16.0096 11.9324 15.9996 11.9324C16.0096 11.7931 16.4675 11.116 18.5683 10.4689ZM36.5591 14.4314V16.9802C36.4695 17.1196 36.4198 17.2889 36.4297 17.4581C36.4297 17.5876 35.9618 18.2745 33.7913 18.9316C31.7702 19.539 28.9725 19.8974 26.125 19.8974C23.6659 19.8974 21.2565 19.6385 19.3449 19.1507C19.315 19.1407 19.2951 19.1407 19.2652 19.1308C18.3194 18.3841 17.274 17.7966 16.1489 17.3685L16.0793 14.5609C16.7662 14.9093 17.4831 15.1881 18.2298 15.3872C20.3903 16.0145 23.188 16.353 26.125 16.353C29.2015 16.353 32.1286 15.9846 34.3588 15.3076C35.1254 15.0985 35.8622 14.7998 36.5591 14.4314ZM18.5982 35.8472C14.546 39.541 8.26364 39.2423 4.57985 35.1901C0.896057 31.1379 1.18479 24.8556 5.23696 21.1718C7.0689 19.5091 9.44843 18.5832 11.9176 18.5832C12.9132 18.5832 13.9088 18.7325 14.8646 19.0213C18.3094 20.1065 20.908 22.9639 21.6547 26.4984C21.7841 27.1555 21.8538 27.8325 21.8538 28.4995C21.8538 31.3072 20.6691 33.9755 18.5982 35.8472ZM21.127 36.0663C21.9335 35.0806 22.5806 33.9755 23.0386 32.7907C23.8849 32.8604 24.781 32.9101 25.6969 32.9201V33.0993L25.7467 36.4745C24.2035 36.4545 22.6603 36.3152 21.127 36.0663ZM23.7754 27.3247C24.3628 27.3645 24.9701 27.3845 25.5874 27.3944C25.5874 27.4143 25.5974 27.4442 25.5974 27.4641L25.6571 30.9189C24.9502 30.9089 24.2632 30.8791 23.5962 30.8293C23.7455 30.0627 23.8252 29.2761 23.8252 28.4995C23.8351 28.1113 23.8152 27.723 23.7754 27.3247ZM26.2246 25.4131C26.1947 25.4131 26.1649 25.4131 26.135 25.4131C25.1792 25.4131 24.2533 25.3733 23.3971 25.3136C23.0187 23.9794 22.4213 22.725 21.6149 21.6099C23.1083 21.799 24.6117 21.8986 26.125 21.8986C29.2015 21.8986 32.1286 21.5302 34.3688 20.8532C35.1354 20.6142 35.8622 20.3255 36.5591 19.9571V22.5955C32.278 22.715 27.8574 23.6111 26.2246 25.4131ZM27.5587 26.9464C27.6583 26.6676 28.3851 26.0205 30.4261 25.443C32.3676 24.8954 34.8965 24.5967 37.5548 24.5967H37.6842C40.5317 24.5967 43.3194 24.9253 45.3505 25.5426C47.4512 26.1798 47.949 26.8169 47.9789 26.9862V26.9962C47.9689 27.1455 47.4711 27.8325 45.2608 28.4896C43.2198 29.0969 40.5317 29.4255 37.6842 29.4255C34.996 29.4255 32.4273 29.1168 30.456 28.5692C28.5544 28.0316 27.7877 27.4243 27.5986 27.1156C27.5886 27.0559 27.5787 26.9962 27.5587 26.9464ZM48.0088 38.0276C48.0088 38.167 47.5607 38.854 45.45 39.5111C43.4289 40.1383 40.7407 40.4868 37.8734 40.4868C34.996 40.4868 32.3078 40.1483 30.3166 39.541C28.2059 38.8938 27.7778 38.2267 27.7778 38.0774C27.7778 38.0675 27.7778 38.0674 27.7778 38.0575L27.728 35.1802C30.0976 36.3849 34.0502 36.9324 37.6742 36.9324C40.7507 36.9324 43.6579 36.5641 45.8881 35.887C46.6248 35.668 47.3317 35.3693 48.0088 35.0109V38.0276ZM47.9192 32.5119C47.9192 32.6513 47.4612 33.3283 45.3106 33.9854C43.2696 34.6027 40.5615 34.9412 37.6742 34.9412C32.2083 34.9412 28.5046 33.7166 27.6882 32.7508L27.6683 31.8946L27.6284 29.6146C28.3552 29.983 29.1119 30.2717 29.8984 30.4808C32.039 31.0782 34.7969 31.4167 37.6643 31.4167C40.691 31.4167 43.5783 31.0583 45.7985 30.4012C46.5651 30.1821 47.3019 29.8934 47.9988 29.525V32.0838H48.0088C48.0088 32.2132 47.9192 32.3625 47.9192 32.5119Z" fill="#8B93E5"/>
<path d="M16.8857 33.8261C16.6866 33.3084 16.1191 33.0595 15.6013 33.2486C15.6013 33.2387 15.6013 33.2387 15.6013 33.2387C13.7196 33.9555 11.599 33.4975 10.1852 32.0738C9.89645 31.8149 9.6575 31.5063 9.47829 31.1678H14.5958C15.1434 31.1678 15.5914 30.7198 15.5914 30.1722C15.5914 29.6246 15.1434 29.1766 14.5958 29.1766H8.75149C8.69175 28.8181 8.68179 28.4498 8.72162 28.0814H15.1135C15.6611 28.0814 16.1091 27.6333 16.1091 27.0858C16.1091 26.5382 15.6611 26.0901 15.1135 26.0901H9.30904C9.54798 25.662 9.83671 25.2737 10.1752 24.9153C11.599 23.5015 13.7196 23.0435 15.5914 23.7703C16.1091 23.9695 16.6766 23.7106 16.8757 23.2028C17.0749 22.6851 16.816 22.1176 16.3082 21.9185C13.6997 20.9129 10.7427 21.5402 8.76144 23.5214C8.02469 24.2482 7.46714 25.1244 7.11867 26.1001H5.70489C5.1573 26.1001 4.70927 26.5481 4.70927 27.0957C4.70927 27.6433 5.1573 28.0913 5.70489 28.0913H6.70051C6.6806 28.4597 6.6806 28.8181 6.72043 29.1865H5.70489C5.1573 29.1865 4.70927 29.6345 4.70927 30.1821C4.70927 30.7297 5.1573 31.1777 5.70489 31.1777H7.22819C7.5667 32.0439 8.09438 32.8404 8.76144 33.4975C10.7328 35.4788 13.6898 36.116 16.3082 35.1104C16.826 34.9113 17.0749 34.3438 16.8857 33.8261Z" fill="#8B93E5"/>
</g>
<defs>
<clipPath id="clip0">
<rect width="50" height="50" fill="white"/>
</clipPath>
</defs>
</svg>
