<svg width="250" height="250" viewBox="0 0 250 250" fill="none" xmlns="http://www.w3.org/2000/svg">
<path d="M237.18 0H159.233C152.157 0 146.413 6.50677 146.413 14.524V102.83C146.413 110.848 152.157 117.354 159.233 117.354H196.54C196.053 140.477 191.309 158.98 182.335 172.894C175.258 183.874 164.541 192.966 150.208 200.141C143.618 203.424 140.772 212.254 143.849 219.633L153.08 241.709C156.054 248.797 163.413 251.905 169.771 248.797C186.745 240.489 201.078 229.974 212.77 217.192C227.026 201.594 236.795 183.991 242.077 164.354C247.359 144.718 250 117.935 250 83.9489V14.524C250 6.50706 244.256 0 237.18 0Z" fill="#F8F8F8"/>
<path d="M27.1881 248.739C43.9568 240.46 58.2127 229.945 69.9816 217.192C84.3657 201.594 94.1859 184.049 99.4678 164.557C104.75 145.066 107.39 118.197 107.39 83.9489V14.524C107.39 6.50677 101.647 0 94.5703 0H16.6241C9.54741 0 3.804 6.50677 3.804 14.524V102.83C3.804 110.848 9.54741 117.354 16.6241 117.354H53.9306C53.4434 140.477 48.7 158.98 39.7259 172.894C32.6492 183.874 21.9316 192.966 7.59875 200.141C1.00922 203.424 -1.83684 212.254 1.23999 219.633L10.4448 241.651C13.4193 248.739 20.8293 251.876 27.1881 248.739Z" fill="#F8F8F8"/>
</svg>
