<svg width="50" height="50" viewBox="0 0 50 50" fill="none" xmlns="http://www.w3.org/2000/svg">
<path d="M45.6055 0C43.1823 0 41.2109 1.97139 41.2109 4.39453V6.11133C40.7524 5.94873 40.2596 5.85938 39.7461 5.85938C37.3229 5.85938 35.3516 7.83076 35.3516 10.2539V17.9266C34.7533 18.1369 34.1923 18.4802 33.7156 18.9568L25.6805 26.8943C25.4331 27.1417 25.2065 27.4042 24.9997 27.6788C24.7914 27.4021 24.5629 27.1376 24.3134 26.8881L16.2909 18.9632C15.8118 18.4841 15.2487 18.1393 14.6486 17.9281V10.2539C14.6486 7.83076 12.6772 5.85938 10.2541 5.85938C9.74062 5.85938 9.24775 5.94873 8.78926 6.11133V4.39453C8.78906 1.97139 6.81768 0 4.39453 0C1.97139 0 0 1.97139 0 4.39453V23.3771C0 24.7042 0.360937 26.0072 1.04375 27.1453L8.16279 39.0104C8.57256 39.6933 8.78906 40.4751 8.78906 41.2714V48.5352C8.78906 49.3441 9.44492 50 10.2539 50H25H39.7461C40.5551 50 41.2109 49.3441 41.2109 48.5352V41.2714C41.2109 40.4751 41.4274 39.6933 41.8372 39.0104L48.9563 27.1453C49.6391 26.0072 50 24.7042 50 23.3771V4.39453C50 1.97139 48.0286 0 45.6055 0ZM8.78906 10.2539C8.78906 9.44619 9.44619 8.78906 10.2539 8.78906C11.0616 8.78906 11.7188 9.44619 11.7188 10.2539V17.928C11.1187 18.1392 10.5555 18.4841 10.0765 18.9631C9.71348 19.3261 9.42744 19.7371 9.21816 20.176C8.9415 19.8993 8.78906 19.5314 8.78906 19.1401C8.78906 18.2913 8.78906 11.1543 8.78906 10.2539ZM23.5351 47.0703H11.7188V41.2714C11.7188 39.9442 11.3578 38.6412 10.675 37.5031L3.55596 25.638C3.14619 24.9552 2.92969 24.1733 2.92969 23.3771V4.39453C2.92969 3.58682 3.58682 2.92969 4.39453 2.92969C5.20225 2.92969 5.85938 3.58682 5.85938 4.39453C5.85938 5.00986 5.85938 18.4117 5.85938 19.1401V19.1437C5.85938 19.1449 5.85957 19.146 5.85957 19.1472C5.86143 20.3184 6.31816 21.4191 7.14648 22.2476L15.0774 30.1785C15.6494 30.7506 16.577 30.7506 17.149 30.1785C17.7211 29.6064 17.7211 28.679 17.149 28.1069L12.1479 23.1059C11.577 22.5349 11.577 21.6058 12.1479 21.0348C12.7125 20.4702 13.6355 20.4513 14.2255 21.0411L22.2479 28.966C23.078 29.796 23.5351 30.8996 23.5351 32.0734V47.0703ZM38.2812 10.2539C38.2812 9.44619 38.9384 8.78906 39.7461 8.78906C40.5538 8.78906 41.2109 9.44619 41.2109 10.2539V16.2109V19.1401C41.2109 19.5314 41.0586 19.8993 40.7819 20.176L40.7817 20.1762C40.5726 19.7372 40.2865 19.3261 39.9235 18.9632C39.4444 18.4841 38.8812 18.1392 38.2812 17.9279V10.2539ZM47.0703 23.3771C47.0703 24.1733 46.8538 24.9552 46.444 25.638L39.325 37.5031C38.6422 38.6412 38.2812 39.9442 38.2812 41.2714V47.0703H26.4648V32.0733C26.4648 30.8995 26.922 29.796 27.7456 28.9723L35.7808 21.0348C36.3519 20.4638 37.2809 20.4638 37.852 21.0348C38.4247 21.6075 38.4248 22.5331 37.852 23.1059L32.8509 28.1069C32.2788 28.679 32.2788 29.6064 32.8509 30.1785C33.4229 30.7506 34.3504 30.7506 34.9225 30.1785L42.8535 22.2476C43.6815 21.4194 44.1383 20.319 44.1404 19.1482C44.1404 19.147 44.1406 19.1457 44.1406 19.1443V19.1401C44.1406 18.2913 44.1406 11.1543 44.1406 10.2539V4.39453C44.1406 3.58682 44.7978 2.92969 45.6055 2.92969C46.4132 2.92969 47.0703 3.58682 47.0703 4.39453V23.3771Z" fill="#8B93E5"/>
<path d="M28.634 2.92969C27.2192 2.92969 25.9743 3.50527 25.0001 4.60205C24.0257 3.50527 22.781 2.92969 21.3661 2.92969C18.507 2.92969 16.2674 5.30586 16.2674 8.33926C16.2673 12.0551 19.6308 14.2774 24.0406 18.0991C24.3159 18.3377 24.6579 18.457 25 18.457C25.3421 18.457 25.6841 18.3378 25.9594 18.0991C30.3163 14.3229 33.7327 12.0859 33.7327 8.33926C33.7327 5.30586 31.4931 2.92969 28.634 2.92969ZM24.9999 15.0623C21.2372 11.8633 19.1969 10.303 19.1969 8.33926C19.197 7.10693 19.9421 5.85938 21.3661 5.85938C22.9391 5.85938 23.5473 7.79795 23.5895 7.93906C23.7598 8.58096 24.3357 9.02822 25.0001 9.02822C25.6646 9.02822 26.2404 8.58105 26.4108 7.93906C26.4527 7.79795 27.061 5.85938 28.6339 5.85938C30.0579 5.85938 30.8029 7.10693 30.8029 8.33926C30.8029 10.3351 28.5995 12.0021 24.9999 15.0623Z" fill="#8B93E5"/>
</svg>
