<svg width="30" height="30" viewBox="0 0 30 30" fill="none" xmlns="http://www.w3.org/2000/svg">
<path d="M8.84766 10.6055H5.33203C4.84657 10.6055 4.45312 10.9989 4.45312 11.4844V25.5469C4.45312 26.0323 4.84657 26.4258 5.33203 26.4258H8.84766C9.33311 26.4258 9.72656 26.0323 9.72656 25.5469V11.4844C9.72656 10.9989 9.33311 10.6055 8.84766 10.6055ZM7.96875 24.668H6.21094V12.3633H7.96875V24.668Z" fill="white"/>
<path d="M7.08984 3.57422C5.63599 3.57422 4.45312 4.75708 4.45312 6.21094C4.45312 7.66479 5.63599 8.84766 7.08984 8.84766C8.5437 8.84766 9.72656 7.66479 9.72656 6.21094C9.72656 4.75708 8.5437 3.57422 7.08984 3.57422ZM7.08984 7.08984C6.6053 7.08984 6.21094 6.69548 6.21094 6.21094C6.21094 5.72639 6.6053 5.33203 7.08984 5.33203C7.57439 5.33203 7.96875 5.72639 7.96875 6.21094C7.96875 6.69548 7.57439 7.08984 7.08984 7.08984Z" fill="white"/>
<path d="M20.8383 10.6598C19.4023 10.4268 17.9324 10.7001 16.7521 11.3828C16.7015 10.9452 16.3298 10.6055 15.8789 10.6055H12.3633C11.8778 10.6055 11.4844 10.999 11.4844 11.4844V25.5469C11.4844 26.0324 11.8778 26.4258 12.3633 26.4258H15.8789C16.3644 26.4258 16.7578 26.0324 16.7578 25.5469V17.6368C16.7578 16.6675 17.5463 15.879 18.5156 15.879C19.4849 15.879 20.2734 16.6675 20.2734 17.6368V25.5469C20.2734 26.0324 20.6669 26.4258 21.1523 26.4258H24.668C25.1534 26.4258 25.5469 26.0324 25.5469 25.5469V16.0863C25.5469 13.4615 23.6918 11.1228 20.8383 10.6598ZM23.7891 24.668H22.0312V17.6368C22.0312 15.6981 20.4543 14.1211 18.5156 14.1211C16.577 14.1211 15 15.6981 15 17.6368V24.668H13.2422V12.3633H15V13.2422C15 13.5977 15.2142 13.9181 15.5427 14.0543C15.8709 14.1903 16.249 14.115 16.5003 13.8637L16.9102 13.4537C17.7731 12.5911 19.2046 12.1754 20.5568 12.3949C22.6257 12.7307 23.7891 14.3839 23.7891 16.0863V24.668Z" fill="white"/>
<path d="M25.5469 0H4.45312C2.0224 0 0 2.024 0 4.45312V25.5469C0 27.9776 2.024 30 4.45312 30H25.5469C27.9776 30 30 27.976 30 25.5469V4.45312C30 2.0224 27.976 0 25.5469 0ZM28.2422 25.5469C28.2422 27.0078 27.0078 28.2422 25.5469 28.2422H4.45312C2.99217 28.2422 1.75781 27.0078 1.75781 25.5469V4.45312C1.75781 2.99217 2.99217 1.75781 4.45312 1.75781H25.5469C27.0078 1.75781 28.2422 2.99217 28.2422 4.45312V25.5469Z" fill="white"/>
</svg>
