<svg width="30" height="30" viewBox="0 0 30 30" fill="none" xmlns="http://www.w3.org/2000/svg">
<path d="M28.5036 25.8934H8.44273C7.61593 25.8934 6.9458 25.2233 6.9458 24.3965C6.9458 23.5697 7.61593 22.8995 8.44273 22.8995H28.5031C29.3299 22.8995 30 23.5697 30 24.3965C30 25.2233 29.3304 25.8934 28.5036 25.8934Z" fill="black"/>
<path d="M28.5036 16.4972H8.44273C7.61593 16.4972 6.9458 15.827 6.9458 15.0002C6.9458 14.1734 7.61593 13.5033 8.44273 13.5033H28.5031C29.3299 13.5033 30 14.1734 30 15.0002C30.0005 15.827 29.3304 16.4972 28.5036 16.4972Z" fill="black"/>
<path d="M28.5036 7.10092H8.44273C7.61593 7.10092 6.9458 6.43079 6.9458 5.60399C6.9458 4.77718 7.61593 4.10706 8.44273 4.10706H28.5031C29.3299 4.10706 30 4.77718 30 5.60399C30 6.43079 29.3304 7.10092 28.5036 7.10092Z" fill="black"/>
<path d="M2.01038 7.73014C3.12068 7.73014 4.02076 6.83006 4.02076 5.71976C4.02076 4.60946 3.12068 3.70938 2.01038 3.70938C0.900077 3.70938 0 4.60946 0 5.71976C0 6.83006 0.900077 7.73014 2.01038 7.73014Z" fill="black"/>
<path d="M2.01038 17.0106C3.12068 17.0106 4.02076 16.1105 4.02076 15.0002C4.02076 13.8899 3.12068 12.9899 2.01038 12.9899C0.900077 12.9899 0 13.8899 0 15.0002C0 16.1105 0.900077 17.0106 2.01038 17.0106Z" fill="black"/>
<path d="M2.01038 26.2911C3.12068 26.2911 4.02076 25.391 4.02076 24.2807C4.02076 23.1704 3.12068 22.2703 2.01038 22.2703C0.900077 22.2703 0 23.1704 0 24.2807C0 25.391 0.900077 26.2911 2.01038 26.2911Z" fill="black"/>
</svg>
