<svg width="50" height="50" viewBox="0 0 50 50" fill="none" xmlns="http://www.w3.org/2000/svg">
<path d="M45.9881 28.3922V24.3084C45.9881 24.1024 45.9063 23.9048 45.7606 23.7591C45.6149 23.6135 45.4173 23.5316 45.2113 23.5316H44.1761V9.42518L45.4581 8.99505C45.6124 8.94325 45.7465 8.84429 45.8415 8.71216C45.9365 8.58002 45.9877 8.42138 45.9877 8.25863C45.9877 8.09588 45.9365 7.93723 45.8415 7.8051C45.7465 7.67296 45.6124 7.57401 45.4581 7.52221L25.2472 0.737323C25.0868 0.683588 24.9132 0.683588 24.7527 0.737323L4.54145 7.52177C4.38716 7.57357 4.25303 7.67252 4.15801 7.80466C4.06299 7.93679 4.01187 8.09543 4.01187 8.25819C4.01187 8.42094 4.06299 8.57958 4.15801 8.71172C4.25303 8.84385 4.38716 8.9428 4.54145 8.9946L11.1306 11.2065V23.2737C11.1306 23.7713 11.1306 24.5237 15.6063 25.3187C18.7099 25.8423 21.8526 26.0985 25 26.0844C28.1473 26.0985 31.2901 25.8423 34.3936 25.3187C38.8694 24.5237 38.8694 23.7713 38.8694 23.2737V11.207L42.6229 9.94675V23.5298H41.5882C41.3822 23.5298 41.1846 23.6117 41.0389 23.7574C40.8933 23.903 40.8114 24.1006 40.8114 24.3067V28.2182H4.95072C4.92897 28.2182 4.90855 28.2227 4.88768 28.2244C2.53506 28.2786 0.696899 31.3898 0.696899 35.3574C0.696899 39.3115 2.52085 42.4152 4.8646 42.488C4.89327 42.4926 4.92216 42.4956 4.95116 42.4969H19.3217L17.0739 48.2431C17.0146 48.3944 17.0043 48.5605 17.0445 48.718C17.0846 48.8755 17.1731 49.0165 17.2976 49.121C17.422 49.2255 17.5761 49.2884 17.7381 49.3008C17.9002 49.3131 18.062 49.2744 18.2009 49.1899L20.744 47.6434L21.7059 48.9804C21.7778 49.0804 21.8725 49.1618 21.9821 49.218C22.0917 49.2742 22.213 49.3035 22.3362 49.3036C22.3687 49.3034 22.4012 49.3013 22.4334 49.2973C22.5721 49.2798 22.7034 49.2252 22.8136 49.1392C22.9239 49.0533 23.0089 48.9392 23.0597 48.8091L25 43.8508L26.9398 48.8095C26.9907 48.9397 27.0757 49.0537 27.1859 49.1397C27.2961 49.2256 27.4275 49.2802 27.5661 49.2978C27.5984 49.3018 27.6308 49.3039 27.6633 49.304C27.7865 49.304 27.9079 49.2746 28.0175 49.2184C28.1271 49.1623 28.2217 49.0808 28.2937 48.9808L29.2556 47.6438L31.7986 49.1904C31.9375 49.2748 32.0993 49.3136 32.2614 49.3012C32.4234 49.2889 32.5775 49.226 32.702 49.1214C32.8264 49.0169 32.9149 48.876 32.9551 48.7185C32.9952 48.561 32.9849 48.3949 32.9257 48.2435L30.6778 42.4974H45.0488C47.4343 42.4974 49.3026 39.3617 49.3026 35.3578C49.3031 31.9048 47.9186 29.0918 45.9881 28.3922ZM25 2.29316L42.7703 8.25819L25 14.2241L7.22966 8.25819L25 2.29316ZM37.3158 22.963C36.2504 23.5005 31.46 24.5308 25 24.5308C18.54 24.5308 13.7487 23.5005 12.6842 22.963V11.7276L24.7527 15.779C24.9132 15.8328 25.0868 15.8328 25.2472 15.779L37.3158 11.7276V22.963ZM42.365 25.083H44.4345V30.0919L43.9098 29.6334C43.7682 29.5089 43.5861 29.4402 43.3975 29.4402C43.209 29.4402 43.0269 29.5089 42.8853 29.6334L42.3628 30.0915L42.365 25.083ZM29.7545 35.3574C29.7545 38.6493 28.3314 40.9433 27.0543 40.9433H25.6214C26.5891 39.6453 27.2004 37.6447 27.2004 35.3574C27.2004 33.07 26.5882 31.0698 25.6214 29.7719H27.0548C28.3292 29.7719 29.7545 32.0659 29.7545 35.3574ZM7.62517 40.9433C8.59418 39.6458 9.20631 37.6447 9.20631 35.3574C9.20631 33.07 8.59418 31.0694 7.62561 29.7719H22.9461C24.2232 29.7719 25.6463 32.0659 25.6463 35.3574C25.6463 38.6488 24.2232 40.9433 22.9461 40.9433H7.62517ZM5.35333 36.1342H7.6225C7.44761 38.6089 6.46039 40.3924 5.43678 40.8345C4.47708 38.1956 5.03861 36.6912 5.35333 36.1342ZM2.25052 35.3574C2.25052 32.0663 3.67098 29.7732 4.94939 29.7732C6.12437 29.7732 7.41964 31.7126 7.62206 34.5805H4.94939C4.84222 34.5806 4.73622 34.6029 4.63806 34.6459C4.5399 34.6889 4.45169 34.7517 4.37898 34.8305C4.30263 34.913 2.77476 36.6384 3.60928 40.1323C2.84489 39.1877 2.25052 37.4832 2.25052 35.3574ZM22.1333 46.9136L21.5851 46.1519C21.4708 45.9932 21.3008 45.8834 21.1091 45.8445C20.9174 45.8056 20.718 45.8404 20.5509 45.942L19.3586 46.6673L20.9903 42.4947H23.861L22.1333 46.9136ZM30.6414 46.6673L29.4491 45.942C29.282 45.8403 29.0826 45.8054 28.8909 45.8443C28.6991 45.8833 28.5291 45.9931 28.4149 46.1519L27.8666 46.9136L26.1386 42.4969H29.0092L30.6414 46.6673ZM45.0493 40.9411H29.7292C30.6969 39.6431 31.3081 37.6425 31.3081 35.3551C31.3081 33.0678 30.6969 31.0676 29.7292 29.7696H40.8114V31.804C40.8118 31.953 40.8549 32.0987 40.9358 32.2238C41.0166 32.3489 41.1318 32.4481 41.2674 32.5097C41.4031 32.5712 41.5536 32.5924 41.701 32.5708C41.8484 32.5491 41.9864 32.4856 42.0987 32.3877L43.398 31.2487L44.6973 32.3877C44.8095 32.4856 44.9476 32.5491 45.095 32.5708C45.2424 32.5924 45.3929 32.5712 45.5285 32.5097C45.6642 32.4481 45.7793 32.3489 45.8602 32.2238C45.941 32.0987 45.9842 31.953 45.9845 31.804V30.1616C46.9345 30.9491 47.7459 32.8693 47.7459 35.3551C47.7495 38.6493 46.3263 40.9433 45.0493 40.9433V40.9411Z" fill="#8B93E5"/>
</svg>
