<svg width="50" height="50" viewBox="0 0 50 50" fill="none" xmlns="http://www.w3.org/2000/svg">
<path d="M1.44242 13.8075C1.42425 13.9063 1.41401 14.0064 1.41071 14.1065V16.1628C1.41335 17.0102 1.93964 17.7677 2.73354 18.0654V21.091C2.73717 22.104 3.53371 22.9365 4.54533 22.9844V40.4637C3.53371 40.5119 2.73717 41.3445 2.73354 42.3571V45.3738C1.93799 45.6794 1.41203 46.4426 1.41071 47.2943V49.3056C1.41071 49.6806 1.71532 49.9849 2.09029 49.9849H47.911C48.286 49.9849 48.5903 49.6806 48.5903 49.3056V47.2943C48.5889 46.4422 48.063 45.679 47.2678 45.3738V42.3393C47.2641 41.3263 46.4673 40.4938 45.456 40.4459V22.9844C46.4673 22.9365 47.2641 22.104 47.2678 21.091V18.0654C48.0613 17.7677 48.5876 17.0102 48.5903 16.1628V14.1201C48.5873 14.0199 48.5767 13.9198 48.5586 13.8211C48.9002 13.9724 49.2996 13.8184 49.4509 13.4768C49.6022 13.1355 49.4483 12.7361 49.107 12.5845L25.3132 0.0786694C25.1146 -0.0260604 24.8774 -0.0260604 24.6789 0.0786694L0.885407 12.5709C0.553378 12.7463 0.426182 13.157 0.600952 13.489C0.760855 13.7923 1.12163 13.9291 1.44242 13.8075ZM4.09238 19.2429V18.1966H11.9283V19.234L4.09238 19.2429ZM21.54 22.989V40.4637C20.5283 40.5119 19.7318 41.3445 19.7282 42.3571V45.2469H13.2779V42.3571C13.2742 41.3445 12.4777 40.5119 11.4661 40.4637V22.9844C12.4777 22.9365 13.2742 22.104 13.2779 21.091V18.1966H19.7189V21.0867C19.7206 22.1013 20.5178 22.9358 21.531 22.9844L21.54 22.989ZM21.087 19.2429V18.1966H28.9232V19.234L21.087 19.2429ZM38.5349 22.989V40.4637C37.5233 40.5119 36.7264 41.3445 36.7228 42.3571V45.2469H30.2728V42.3571C30.2692 41.3445 29.4723 40.5119 28.461 40.4637V22.9844C29.4723 22.9365 30.2692 22.104 30.2728 21.091V18.1966H36.7139V21.0867C36.7152 22.1013 37.5124 22.9358 38.5257 22.9844L38.5349 22.989ZM38.082 19.2429V18.1966H45.9178V19.234L38.082 19.2429ZM45.9178 44.2099V45.2469H38.0727V44.2099H45.9178ZM28.9232 44.2099V45.2469H21.0781V44.2099H28.9232ZM22.2103 21.6391H21.6216C21.3212 21.6391 21.0781 21.396 21.0781 21.0956V20.6017H28.914V21.0956C28.914 21.396 28.6708 21.6391 28.3705 21.6391H22.2103ZM27.1068 22.998V40.4548H22.8899V22.998H27.1068ZM22.2103 41.8136H28.3705C28.6708 41.8136 28.914 42.0568 28.914 42.3571V42.851H21.0781V42.3571C21.0781 42.0568 21.3212 41.8136 21.6216 41.8136H22.2103ZM11.9194 44.2099V45.2469H4.08313V44.2099H11.9194ZM4.08313 21.1092V20.6017H11.9194V21.0956C11.9194 21.396 11.6762 21.6391 11.3756 21.6391H4.61306C4.31638 21.6318 4.08049 21.3877 4.08313 21.091V21.1092ZM10.1076 23.0115V40.4548H5.89492V22.998L10.1076 23.0115ZM4.08313 42.371C4.08313 42.0703 4.32629 41.8272 4.6266 41.8272H11.3756C11.6762 41.8272 11.9194 42.0703 11.9194 42.371V42.8646H4.08313V42.371ZM47.2314 47.3217V48.6531H2.76063V47.3217C2.76063 46.9338 3.07482 46.6193 3.46268 46.6193H46.5294C46.9116 46.6193 47.2242 46.9256 47.2314 47.3078V47.3217ZM45.9089 42.371V42.8646H38.0727V42.371C38.0727 42.0703 38.3159 41.8272 38.6162 41.8272H45.379C45.6687 41.8344 45.9017 42.0674 45.9089 42.3571V42.371ZM39.8845 40.4683V22.998H44.1014V40.4548L39.8845 40.4683ZM45.9089 21.1092C45.9089 21.4095 45.6658 21.6527 45.3655 21.6527H38.6208C38.3205 21.6527 38.0773 21.4095 38.0773 21.1092V20.6017H45.9132L45.9089 21.1092ZM24.996 1.43751L45.2293 12.0727H4.76272L24.996 1.43751ZM2.76063 14.1201C2.76063 13.7451 3.06491 13.4408 3.43989 13.4408H46.5522C46.9272 13.4408 47.2314 13.7451 47.2314 14.1201V16.1767C47.2314 16.5516 46.9272 16.8559 46.5522 16.8559H3.43989C3.06491 16.8559 2.76063 16.5516 2.76063 16.1767V14.1201Z" fill="#8B93E5"/>
</svg>
