<svg width="50" height="50" viewBox="0 0 50 50" fill="none" xmlns="http://www.w3.org/2000/svg">
<g clip-path="url(#clip0)">
<path d="M49.6237 5.54441C49.3856 5.35935 49.0756 5.29461 48.7836 5.36892L44.1375 6.55027C43.3914 6.73982 42.623 6.83601 41.8534 6.83601H35.0352C32.8234 6.83601 30.9759 8.42301 30.6423 10.6097C30.4553 11.8353 29.4197 12.7248 28.1801 12.7248H27.9306V10.6848C29.6148 9.68209 30.7462 7.84372 30.7462 5.74529C30.7463 2.57733 28.1689 0 25.0009 0C21.8328 0 19.2556 2.57733 19.2556 5.74529C19.2556 7.84372 20.3869 9.68209 22.0712 10.6848V12.7248H21.8217C20.582 12.7248 19.5464 11.8353 19.3595 10.6097C19.0259 8.42301 17.1783 6.83601 14.9665 6.83601H8.14831C7.37878 6.83601 6.61033 6.73991 5.86433 6.55027L1.21816 5.36902C0.926364 5.2948 0.616111 5.35945 0.378026 5.54451C0.140136 5.72947 0.000976562 6.01404 0.000976562 6.3154C0.000976562 8.37682 0.796286 10.2554 2.09491 11.6628C2.12343 14.0329 3.24637 16.143 4.98104 17.5127L5.89968 18.7405C7.9943 21.5401 11.3325 23.2115 14.8291 23.2115C17.5114 23.2115 20.0532 22.2687 22.0712 20.5408V24.0235H21.1953C17.7132 24.0235 14.8802 26.8565 14.8802 30.3386C14.8802 31.4027 15.1502 32.455 15.6609 33.382C15.8388 33.705 16.1727 33.8876 16.5171 33.8876C16.6765 33.8876 16.8381 33.8485 16.9874 33.7662C17.4599 33.5059 17.6319 32.912 17.3716 32.4396C17.0196 31.8005 16.8333 31.074 16.8333 30.3386C16.8333 27.9334 18.7901 25.9767 21.1953 25.9767H22.0712V34.7005H19.7763C17.2006 34.7005 15.1051 36.796 15.1051 39.3718C15.1051 41.9475 17.2006 44.043 19.7763 44.043H22.4915C22.8301 45.8768 23.3716 47.6703 24.1156 49.4079C24.2694 49.7672 24.6226 50 25.0133 50H25.015C25.4064 49.9993 25.7597 49.765 25.9124 49.4046L25.9316 49.3592C26.66 47.6365 27.1898 45.8592 27.5208 44.043H28.6305C29.7344 44.043 30.6324 44.941 30.6324 46.0449C30.6324 47.1488 29.7344 48.0469 28.6305 48.0469H28.5641C28.0249 48.0469 27.5876 48.4842 27.5876 49.0234C27.5876 49.5627 28.0249 50 28.5641 50H28.6305C30.8113 50 32.5855 48.2258 32.5855 46.0449C32.5855 43.8641 30.8113 42.0899 28.6305 42.0899H27.7985C27.886 41.2329 27.9306 40.3688 27.9306 39.4988V36.6537H28.5816C32.0637 36.6537 34.8966 33.8208 34.8966 30.3386C34.8966 26.8565 32.0637 24.0235 28.5816 24.0235H27.9306V20.5408C29.9486 22.2688 32.4904 23.2115 35.1726 23.2115C38.6692 23.2115 42.0072 21.5401 44.1021 18.7405L45.0207 17.5127C46.7555 16.143 47.8783 14.0328 47.9068 11.6627C49.2056 10.2554 50.0008 8.37682 50.0008 6.3154C50.0008 6.01404 49.8616 5.72947 49.6237 5.54441ZM21.2981 18.5995C19.5646 20.3142 17.2672 21.2584 14.8291 21.2584C12.657 21.2584 10.5592 20.4762 8.91774 19.1036C9.16285 19.1277 9.41119 19.1406 9.66256 19.1406H11.2979C11.8372 19.1406 12.2745 18.7033 12.2745 18.1641C12.2745 17.6248 11.8372 17.1875 11.2979 17.1875H9.66256C7.19099 17.1875 5.08855 15.5819 4.33963 13.3594C5.40847 13.901 6.61531 14.2084 7.89323 14.2086L9.91305 14.2089H9.91314C10.4523 14.2089 10.8896 13.7717 10.8897 13.2325C10.8898 12.6932 10.4526 12.2559 9.91324 12.2558L7.89343 12.2555C5.06209 12.2551 2.6871 10.2632 2.09569 7.60729L5.38328 8.44313C6.2864 8.67282 7.21667 8.78913 8.14831 8.78913H14.9665C16.2063 8.78913 17.2418 9.67857 17.4287 10.9042C17.7623 13.0909 19.6099 14.6779 21.8217 14.6779H22.0712V17.8349L21.2981 18.5995ZM19.7763 42.0898C18.2776 42.0898 17.0582 40.8704 17.0582 39.3717C17.0582 37.8729 18.2776 36.6536 19.7763 36.6536H22.0712V39.4406C22.0712 40.3304 22.118 41.2139 22.2094 42.0898H19.7763ZM25.9774 39.4987C25.9774 41.7725 25.6525 44.004 25.0096 46.1601C24.355 43.9862 24.0243 41.7356 24.0243 39.4406V36.6536H25.9774V39.4987ZM25.9774 34.7005H24.0243V11.4059C24.3419 11.4606 24.6679 11.4907 25.0009 11.4907C25.3339 11.4907 25.6599 11.4606 25.9774 11.4059V34.7005ZM28.5816 25.9766C30.9868 25.9766 32.9435 27.9333 32.9435 30.3386C32.9435 32.7437 30.9868 34.7005 28.5816 34.7005H27.9306V25.9766H28.5816ZM25.0009 9.53746C22.9098 9.53746 21.2087 7.8363 21.2087 5.74529C21.2087 3.65428 22.9099 1.95312 25.0009 1.95312C27.0919 1.95312 28.7931 3.65428 28.7931 5.74529C28.7931 7.8363 27.092 9.53746 25.0009 9.53746ZM42.1083 12.2555L40.0887 12.2558C39.5494 12.2559 39.1122 12.6932 39.1122 13.2325C39.1123 13.7718 39.5496 14.209 40.0889 14.2089L42.1087 14.2086C43.3866 14.2084 44.5935 13.9011 45.6623 13.3594C44.9134 15.5819 42.8109 17.1875 40.3394 17.1875H38.7039C38.1647 17.1875 37.7274 17.6248 37.7274 18.1641C37.7274 18.7033 38.1647 19.1406 38.7039 19.1406H40.3393C40.5907 19.1406 40.8389 19.1277 41.084 19.1036C39.4424 20.4762 37.3448 21.2584 35.1727 21.2584C32.7346 21.2584 30.4373 20.3142 28.7038 18.5996L27.9306 17.8349V14.6779H28.1801C30.3919 14.6779 32.2394 13.0909 32.573 10.9042C32.7599 9.67857 33.7955 8.78913 35.0352 8.78913H41.8534C42.7851 8.78913 43.7154 8.67282 44.6186 8.44313L47.9061 7.60729C47.3147 10.2631 44.9397 12.2551 42.1083 12.2555Z" fill="#8B93E5"/>
<path d="M21.7841 48.333C21.6026 48.1513 21.3506 48.0469 21.0938 48.0469C20.837 48.0469 20.585 48.1513 20.4034 48.333C20.2217 48.5148 20.1172 48.7666 20.1172 49.0234C20.1172 49.2803 20.2216 49.5322 20.4034 49.7138C20.585 49.8954 20.837 50 21.0938 50C21.3506 50 21.6026 49.8955 21.7841 49.7138C21.9658 49.5322 22.0704 49.2803 22.0704 49.0234C22.0704 48.7666 21.9659 48.5147 21.7841 48.333Z" fill="#8B93E5"/>
</g>
<defs>
<clipPath id="clip0">
<rect width="50" height="50" fill="white"/>
</clipPath>
</defs>
</svg>
