<svg width="35" height="35" viewBox="0 0 35 35" fill="none" xmlns="http://www.w3.org/2000/svg">
<g clip-path="url(#clip0)">
<path d="M34.0996 25.8148L29.7486 21.4638C28.549 20.2643 26.597 20.2643 25.3975 21.4638L23.4198 23.4415C22.5111 24.3503 21.0323 24.35 20.1239 23.4418L11.5516 14.8622C10.6407 13.9513 10.6406 12.477 11.5516 11.566C11.8702 11.2475 12.7849 10.3327 13.5293 9.5883C14.7236 8.39406 14.7403 6.44821 13.5281 5.2362L9.1783 0.900021C7.97872 -0.299482 6.02685 -0.299482 4.83049 0.896876C3.93526 1.78432 3.64651 2.07061 3.2451 2.46853C-1.08069 6.79425 -1.08069 13.8327 3.24489 18.1583L16.8274 31.7479C21.1633 36.0839 28.1811 36.0842 32.5173 31.7479L34.0996 30.1657C35.2991 28.9662 35.2991 27.0144 34.0996 25.8148ZM6.27766 2.35034C6.6775 1.9505 7.32801 1.95043 7.72914 2.35143L12.079 6.68761C12.4798 7.0884 12.4798 7.73706 12.079 8.13792L11.3538 8.86308L5.5562 3.06551L6.27766 2.35034ZM18.278 30.2978L4.69541 16.7081C1.34867 13.3613 1.16472 8.1062 4.12967 4.53968L9.91043 10.3204C8.39148 12.0423 8.45478 14.6662 10.1009 16.3123L18.673 24.8915C18.673 24.8916 18.6732 24.8917 18.6732 24.8918C20.3176 26.5363 22.9413 26.6037 24.6653 25.0827L30.4462 30.8635C26.8911 33.8234 21.6478 33.6676 18.278 30.2978ZM32.6493 28.7154L31.9241 29.4406L26.1228 23.6392L26.8479 22.9141C27.2478 22.5143 27.8983 22.5142 28.2982 22.9141L32.6493 27.2651C33.0492 27.665 33.0492 28.3156 32.6493 28.7154Z" fill="#F2F2F2"/>
</g>
<defs>
<clipPath id="clip0">
<rect width="35" height="35" fill="white"/>
</clipPath>
</defs>
</svg>
