<svg width="262" height="253" viewBox="0 0 262 253" fill="none" xmlns="http://www.w3.org/2000/svg">
<g clip-path="url(#clip0)">
<path opacity="0.24" d="M250.902 165.743C243.388 176.519 232.849 184.81 224.514 195.001C212.276 209.941 204.357 229.339 187.786 239.305C179.949 244.011 170.879 246.115 161.989 248.157C147.703 251.444 132.899 254.731 118.501 251.954C107.464 249.831 97.4475 244.266 87.6368 238.776L79.8741 234.418C78.1622 233.447 76.4316 232.495 74.7011 231.523L69.6587 228.697C54.8555 220.356 40.1456 211.653 27.6705 200.155C13.7699 187.394 2.72037 170.599 0.423314 151.842C-2.24102 130.167 7.95567 107.401 25.8964 94.9451C35.7382 88.0975 47.4725 84.2877 57.1401 77.1849C72.3978 65.9798 80.7954 48.0577 91.2722 32.3145C110.688 3.12506 148.026 -10.844 179.469 9.90418C191.689 17.9594 200.933 29.9241 207.725 42.8971C213.465 53.8346 217.685 65.6996 225.317 75.4108C234.032 86.5039 246.719 94.1856 254.345 106.057C265.768 123.823 263.004 148.4 250.902 165.743Z" fill="#8B93E5"/>
<path opacity="0.42" d="M89.6288 232.165C88.7137 233.167 90.214 234.561 91.4963 235.047C99.8634 238.248 108.745 239.894 117.704 239.902L116.179 242.498C130.221 246.397 145.05 246.475 159.132 242.722L156.966 239.361L169.546 238.738C171.545 238.645 178.554 239.467 179.88 237.692C183.696 232.582 168.165 232.382 166.496 232.314C149.925 231.621 133.343 231.353 116.752 231.511C112.228 231.552 107.704 231.625 103.181 231.729C101.039 231.804 90.961 230.745 89.6288 232.165Z" fill="#8B93E5"/>
<path d="M160.358 186.105C160.022 192.745 159.622 199.398 159.157 206.063C159.019 209.432 158.581 212.781 157.85 216.073C157.359 218.03 156.666 219.93 155.783 221.744C155.403 222.522 154.862 223.369 154.009 223.456C152.932 223.568 152.185 222.416 151.799 221.401C149.875 216.421 149.875 210.968 149.751 205.64C149.68 202.884 149.57 200.126 149.421 197.366C149.24 194.036 148.879 190.432 146.626 187.966C145.941 187.219 145.107 186.609 144.434 185.844C141.689 182.731 142.511 177.483 145.468 174.551C147.765 172.279 154.432 169.279 157.65 171.159C161.473 173.387 160.539 182.513 160.358 186.105Z" fill="#606161"/>
<path d="M141.085 174.707C142.048 176.232 142.499 178.025 142.374 179.824C142.218 185.234 139.006 190.021 137.394 195.194C134.979 203.006 136.323 211.379 136.566 219.578C136.678 220.706 136.538 221.846 136.155 222.914C135.952 223.444 135.592 223.899 135.124 224.219C134.656 224.539 134.102 224.709 133.534 224.707C132.713 224.554 131.973 224.113 131.449 223.462C127.49 219.229 127.621 212.774 126.967 207.022C126.232 200.616 124.247 194.428 122.553 188.209C121.788 185.402 121.072 182.526 121.252 179.625C121.433 176.724 122.653 173.742 125.05 172.099C129.401 169.123 137.979 170.256 141.085 174.707Z" fill="#606161"/>
<path opacity="0.52" d="M37.9979 116.378L106.013 116.378C110.187 116.378 113.57 112.994 113.57 108.821L113.57 32.277C113.57 28.1032 110.187 24.7197 106.013 24.7197L37.9979 24.7197C33.8242 24.7197 30.4407 28.1032 30.4407 32.277L30.4407 108.821C30.4407 112.994 33.8242 116.378 37.9979 116.378Z" fill="#8B93E5"/>
<path d="M37.9979 116.378L106.013 116.378C110.187 116.378 113.57 112.994 113.57 108.821L113.57 32.277C113.57 28.1032 110.187 24.7197 106.013 24.7197L37.9979 24.7197C33.8242 24.7197 30.4407 28.1032 30.4407 32.277L30.4407 108.821C30.4407 112.994 33.8242 116.378 37.9979 116.378Z" fill="url(#paint0_linear)"/>
<path opacity="0.52" d="M168.756 98.6987L246.744 98.6987C250.718 98.6987 253.94 95.4769 253.94 91.5025V49.2404C253.94 45.2661 250.718 42.0442 246.744 42.0442L168.756 42.0442C164.782 42.0442 161.56 45.2661 161.56 49.2404V91.5025C161.56 95.4769 164.782 98.6987 168.756 98.6987Z" fill="#8B93E5"/>
<path d="M168.756 98.6987L246.744 98.6987C250.718 98.6987 253.94 95.4769 253.94 91.5025V49.2404C253.94 45.2661 250.718 42.0442 246.744 42.0442L168.756 42.0442C164.782 42.0442 161.56 45.2661 161.56 49.2404V91.5025C161.56 95.4769 164.782 98.6987 168.756 98.6987Z" fill="url(#paint1_linear)"/>
<path opacity="0.52" d="M144.908 57.3145L193.905 57.3145C196.401 57.3145 198.425 55.291 198.425 52.795V26.2388C198.425 23.7428 196.401 21.7194 193.905 21.7194L144.908 21.7194C142.412 21.7194 140.388 23.7428 140.388 26.2388V52.795C140.388 55.291 142.412 57.3145 144.908 57.3145Z" fill="#8B93E5"/>
<path d="M144.908 57.3145L193.905 57.3145C196.401 57.3145 198.425 55.291 198.425 52.795V26.2388C198.425 23.7428 196.401 21.7194 193.905 21.7194L144.908 21.7194C142.412 21.7194 140.388 23.7428 140.388 26.2388V52.795C140.388 55.291 142.412 57.3145 144.908 57.3145Z" fill="url(#paint2_linear)"/>
<path opacity="0.52" d="M66.901 165.699L207.395 165.699V158.964L66.901 158.964V165.699Z" fill="#8B93E5"/>
<path d="M94.3225 150.298H186.223C190.542 150.298 194.042 146.798 194.042 142.48V78.7285C194.042 74.4104 190.542 70.9098 186.223 70.9098L94.3225 70.9098C90.0043 70.9098 86.5038 74.4104 86.5038 78.7285L86.5038 142.48C86.5038 146.798 90.0043 150.298 94.3225 150.298Z" fill="#8B93E5"/>
<path d="M94.3225 150.298H186.223C190.542 150.298 194.042 146.798 194.042 142.48V78.7285C194.042 74.4104 190.542 70.9098 186.223 70.9098L94.3225 70.9098C90.0043 70.9098 86.5038 74.4104 86.5038 78.7285L86.5038 142.48C86.5038 146.798 90.0043 150.298 94.3225 150.298Z" fill="url(#paint3_linear)"/>
<path d="M121.171 83.3413H99.7259V84.9163H121.171V83.3413Z" fill="url(#paint4_linear)"/>
<path d="M112.817 86.3857H99.7259V87.8611H112.817V86.3857Z" fill="url(#paint5_linear)"/>
<path d="M159.288 86.3857H118.096V87.8735H159.288V86.3857Z" fill="url(#paint6_linear)"/>
<path d="M186.323 86.3857H163.141V87.8735H186.323V86.3857Z" fill="url(#paint7_linear)"/>
<path d="M124.533 89.4419H106.536V90.9982H124.533V89.4419Z" fill="url(#paint8_linear)"/>
<path d="M133.758 92.48H112.313V94.0549H133.758V92.48Z" fill="url(#paint9_linear)"/>
<path d="M153.137 92.48H135.159V94.2292H153.137V92.48Z" fill="url(#paint10_linear)"/>
<path d="M128.841 95.5239H112.282V96.9993H128.841V95.5239Z" fill="url(#paint11_linear)"/>
<path d="M164.604 95.5239H130.428V97.1611H164.604V95.5239Z" fill="url(#paint12_linear)"/>
<path d="M121.171 99.645H99.7259V101.22H121.171V99.645Z" fill="url(#paint13_linear)"/>
<path d="M112.817 102.689H99.7259V104.164H112.817V102.689Z" fill="url(#paint14_linear)"/>
<path d="M159.288 102.689H118.096V104.177H159.288V102.689Z" fill="url(#paint15_linear)"/>
<path d="M186.323 102.689H163.141V104.177H186.323V102.689Z" fill="url(#paint16_linear)"/>
<path d="M124.533 105.733H106.536V107.289H124.533V105.733Z" fill="url(#paint17_linear)"/>
<path d="M133.758 108.783H112.313V110.358H133.758V108.783Z" fill="url(#paint18_linear)"/>
<path d="M153.137 108.783H135.159V110.532H153.137V108.783Z" fill="url(#paint19_linear)"/>
<path d="M128.841 111.828H112.282V113.303H128.841V111.828Z" fill="url(#paint20_linear)"/>
<path d="M164.604 111.828H130.428V113.465H164.604V111.828Z" fill="url(#paint21_linear)"/>
<path d="M121.171 115.942H99.7259V117.517H121.171V115.942Z" fill="url(#paint22_linear)"/>
<path d="M112.817 118.986H99.7259V120.462H112.817V118.986Z" fill="url(#paint23_linear)"/>
<path d="M159.288 118.986H118.096V120.474H159.288V118.986Z" fill="url(#paint24_linear)"/>
<path d="M186.323 118.986H163.141V120.474H186.323V118.986Z" fill="url(#paint25_linear)"/>
<path d="M124.533 122.03H106.536V123.587H124.533V122.03Z" fill="url(#paint26_linear)"/>
<path d="M133.758 125.075H112.313V126.65H133.758V125.075Z" fill="url(#paint27_linear)"/>
<path d="M153.137 125.075H135.159V126.824H153.137V125.075Z" fill="url(#paint28_linear)"/>
<path d="M128.841 128.125H112.282V129.6H128.841V128.125Z" fill="url(#paint29_linear)"/>
<path d="M164.604 128.125H130.428V129.762H164.604V128.125Z" fill="url(#paint30_linear)"/>
<g opacity="0.52">
<path opacity="0.52" d="M158.422 26.5874H147.752V27.3718H158.422V26.5874Z" fill="#8B93E5"/>
<path opacity="0.52" d="M154.264 28.1064H147.752V28.841H154.264V28.1064Z" fill="#8B93E5"/>
<path opacity="0.52" d="M177.384 28.1064H156.891V28.8472H177.384V28.1064Z" fill="#8B93E5"/>
<path opacity="0.52" d="M190.83 28.1064H179.295V28.8472H190.83V28.1064Z" fill="#8B93E5"/>
<path opacity="0.52" d="M160.091 29.6191H151.139V30.3911H160.091V29.6191Z" fill="#8B93E5"/>
<path opacity="0.52" d="M164.685 31.1377H154.015V31.9221H164.685V31.1377Z" fill="#8B93E5"/>
<path opacity="0.52" d="M174.315 31.1377H165.376V32.0092H174.315V31.1377Z" fill="#8B93E5"/>
<path opacity="0.52" d="M162.232 32.6504H153.996V33.3849H162.232V32.6504Z" fill="#8B93E5"/>
<path opacity="0.52" d="M180.03 32.6504H163.029V33.4659H180.03V32.6504Z" fill="#8B93E5"/>
<path opacity="0.52" d="M158.422 34.6987H147.752V35.4831H158.422V34.6987Z" fill="#8B93E5"/>
<path opacity="0.52" d="M154.264 36.2114H147.752V36.946H154.264V36.2114Z" fill="#8B93E5"/>
<path opacity="0.52" d="M177.384 36.2114H156.891V36.9522H177.384V36.2114Z" fill="#8B93E5"/>
<path opacity="0.52" d="M190.83 36.2114H179.295V36.9522H190.83V36.2114Z" fill="#8B93E5"/>
<path opacity="0.52" d="M160.091 37.7241H151.139V38.496H160.091V37.7241Z" fill="#8B93E5"/>
<path opacity="0.52" d="M164.685 39.2432H154.015V40.0275H164.685V39.2432Z" fill="#8B93E5"/>
<path opacity="0.52" d="M174.315 39.2432H165.376V40.1147H174.315V39.2432Z" fill="#8B93E5"/>
<path opacity="0.52" d="M162.232 40.7559H153.996V41.4904H162.232V40.7559Z" fill="#8B93E5"/>
<path opacity="0.52" d="M180.03 40.7559H163.029V41.5713H180.03V40.7559Z" fill="#8B93E5"/>
<path opacity="0.52" d="M158.422 42.8037H147.752V43.5881H158.422V42.8037Z" fill="#8B93E5"/>
<path opacity="0.52" d="M154.264 44.3228H147.752V45.0573H154.264V44.3228Z" fill="#8B93E5"/>
<path opacity="0.52" d="M177.384 44.3228H156.891V45.0635H177.384V44.3228Z" fill="#8B93E5"/>
<path opacity="0.52" d="M190.83 44.3228H179.295V45.0635H190.83V44.3228Z" fill="#8B93E5"/>
<path opacity="0.52" d="M160.091 45.8354H151.139V46.6074H160.091V45.8354Z" fill="#8B93E5"/>
<path opacity="0.52" d="M164.685 47.3481H154.015V48.1325H164.685V47.3481Z" fill="#8B93E5"/>
<path opacity="0.52" d="M174.315 47.3481H165.376V48.2197H174.315V47.3481Z" fill="#8B93E5"/>
<path opacity="0.52" d="M162.232 48.8672H153.996V49.6017H162.232V48.8672Z" fill="#8B93E5"/>
<path opacity="0.52" d="M180.03 48.8672H163.029V49.6827H180.03V48.8672Z" fill="#8B93E5"/>
</g>
<path d="M166.154 154.6C166.596 155.845 167.013 157.153 166.739 158.435C166.64 158.879 166.461 159.301 166.21 159.68C164.965 161.61 162.014 161.909 159.985 160.751C157.955 159.593 156.81 157.377 156.25 155.148C156.029 154.402 155.955 153.619 156.032 152.845C156.212 151.494 157.109 150.355 158.043 149.359C159.288 148.064 161.572 146.371 163.247 147.927C164.753 149.321 165.488 152.739 166.154 154.6Z" fill="url(#paint31_linear)"/>
<path d="M115.239 154.227C114.966 154.741 114.839 155.32 114.872 155.901C114.947 156.275 115.095 156.63 115.307 156.947C115.831 157.887 116.531 158.718 117.368 159.393C118.213 160.07 119.283 160.402 120.362 160.321C121.956 160.147 123.219 158.883 124.066 157.52C124.946 156.224 125.409 154.691 125.392 153.125C125.343 152.3 125.113 151.496 124.716 150.77C124.32 150.045 123.769 149.416 123.101 148.929C121.9 148.058 119.397 147.267 118.04 148.263C116.683 149.259 115.917 152.621 115.239 154.227Z" fill="url(#paint32_linear)"/>
<path d="M152.004 108.503C152.225 108.439 152.458 108.427 152.685 108.467C152.911 108.507 153.126 108.598 153.311 108.734C153.571 109.029 153.723 109.405 153.741 109.798C153.9 110.591 153.931 111.404 153.834 112.207C153.73 113.005 153.338 113.738 152.733 114.268C152.261 114.615 151.729 114.873 151.164 115.027C150.74 115.22 150.257 115.238 149.819 115.077C149.628 114.947 149.469 114.776 149.353 114.577C149.237 114.378 149.166 114.155 149.147 113.925C148.655 111.516 149.408 108.976 152.004 108.503Z" fill="url(#paint33_linear)"/>
<path d="M129.339 107.669C129.091 107.607 128.833 107.607 128.585 107.669C128.315 107.796 128.088 107.998 127.929 108.251C127.77 108.503 127.687 108.796 127.689 109.095C127.649 109.68 127.686 110.268 127.801 110.844C127.908 111.807 128.303 112.716 128.934 113.452C129.252 113.806 129.679 114.043 130.148 114.125C130.617 114.206 131.099 114.127 131.517 113.901C134.163 112.07 131.673 108.18 129.339 107.669Z" fill="url(#paint34_linear)"/>
<path d="M146.097 125.068C146.219 125.632 146.253 126.212 146.196 126.786C145.966 128.38 144.378 129.494 142.785 129.694C141.191 129.893 139.598 129.357 138.11 128.766C137.653 128.612 137.23 128.371 136.865 128.056C136.5 127.675 136.252 127.198 136.149 126.681C135.97 125.783 135.916 124.866 135.987 123.954L136.087 120.742C136.056 120.114 136.18 119.487 136.448 118.918C137.07 117.853 138.496 117.673 139.735 117.592C141.359 117.523 143.806 117.592 144.876 119.074C145.947 120.555 145.823 123.344 146.097 125.068Z" fill="url(#paint35_linear)"/>
<path d="M151.101 98.848C151.585 100.203 151.756 101.651 151.6 103.081C151.461 106.384 151.116 109.675 150.566 112.935C150.155 115.382 149.508 118.009 147.572 119.553C147.018 119.925 146.496 120.341 146.009 120.798C145.673 121.159 145.437 121.607 145.125 121.999C143.55 123.972 140.376 123.972 138.209 122.659C136.043 121.345 134.655 119.092 133.385 116.901C131.984 114.485 130.596 111.958 130.347 109.175C130.142 106.972 130.658 104.65 129.818 102.602C129.195 101.095 127.907 99.8876 127.621 98.2878C127.51 97.2099 127.642 96.1209 128.006 95.1005C128.511 93.289 129.283 91.1974 131.119 90.7056C132.457 90.3446 133.839 91.0293 135.228 91.0729C136.995 91.1352 138.795 90.1454 140.475 90.7056C142.635 91.4277 143.588 93.9178 145.742 94.727C147.896 95.5363 150.099 96.5572 151.101 98.848Z" fill="#606161"/>
<path d="M158.248 130.752C151.936 125.517 142.828 125.647 134.705 126.755C131.349 127.21 127.932 127.814 124.981 129.482C120.038 132.283 117.113 137.699 115.575 143.177C114.759 146.084 114.33 149.402 115.961 151.954C117.673 154.594 121.084 155.503 124.209 155.851C124.688 155.862 125.156 155.997 125.566 156.244C125.997 156.642 126.267 157.185 126.326 157.769C127.197 162.313 125.429 167.418 127.764 171.408C130.023 175.261 135.072 176.276 139.523 176.618C145.281 177.06 151.525 176.898 156.2 173.506C156.975 172.985 157.635 172.308 158.136 171.52C158.908 170.2 158.951 168.594 158.97 167.069C159.02 163.745 157.806 157.059 159.425 154.127C160.782 151.687 164.647 151.674 166.004 148.885C168.575 143.582 162.114 133.951 158.248 130.752Z" fill="white"/>
<path d="M135.402 173.113L135.445 180.191C135.476 180.464 135.424 180.739 135.296 180.982C135.089 181.238 134.789 181.401 134.462 181.436C132.545 181.885 130.54 181.629 128.573 181.636C126.606 181.642 124.483 181.99 123.07 183.366C125.218 184.954 127.988 185.389 130.646 185.701C134.58 186.169 138.523 186.481 142.474 186.634C145.035 186.823 147.609 186.689 150.137 186.236C152.359 185.79 154.442 184.819 156.212 183.403C154.476 181.536 151.6 181.573 149.06 181.573C146.589 181.572 144.119 181.431 141.664 181.15C141.387 181.154 141.112 181.1 140.856 180.993C140.6 180.886 140.369 180.728 140.176 180.527C139.97 180.159 139.887 179.733 139.94 179.314C139.987 177.742 140.185 176.179 140.531 174.645C140.605 174.139 140.809 173.66 141.123 173.257C141.677 172.783 142.374 172.507 143.102 172.472C145.985 171.992 148.811 171.22 151.537 170.169C152.66 169.797 153.705 169.221 154.619 168.469C157.071 166.241 156.966 162.4 156.399 159.132C151.885 161.752 146.788 163.203 141.571 163.352C138.004 163.452 130.266 161.921 127.757 165.357C126.512 167.094 127.838 168.7 129.214 169.901C129.812 170.412 135.402 173.045 135.402 173.113Z" fill="url(#paint36_linear)"/>
<path d="M148.182 140.948H133.366C127.594 140.948 122.914 145.628 122.914 151.4V155.814C122.914 161.586 127.594 166.266 133.366 166.266H148.182C153.954 166.266 158.634 161.586 158.634 155.814V151.4C158.634 145.628 153.954 140.948 148.182 140.948Z" fill="#8B93E5"/>
<path d="M148.182 140.948H133.366C127.594 140.948 122.914 145.628 122.914 151.4V155.814C122.914 161.586 127.594 166.266 133.366 166.266H148.182C153.954 166.266 158.634 161.586 158.634 155.814V151.4C158.634 145.628 153.954 140.948 148.182 140.948Z" fill="url(#paint37_linear)"/>
<path d="M148.182 143.276H133.366C127.594 143.276 122.914 147.956 122.914 153.728V158.142C122.914 163.914 127.594 168.594 133.366 168.594H148.182C153.954 168.594 158.634 163.914 158.634 158.142V153.728C158.634 147.956 153.954 143.276 148.182 143.276Z" fill="#8B93E5"/>
<path d="M146.271 157.252C145.202 157.726 144.076 158.061 142.922 158.248C139.809 158.821 136.174 158.696 133.933 156.436C133.582 156.093 133.297 155.688 133.092 155.241C132.47 153.729 133.285 151.905 134.624 150.946C135.962 149.987 137.662 149.732 139.299 149.651C141.303 149.551 145.113 149.209 146.862 150.56C148.954 152.178 148.63 156.144 146.271 157.252Z" fill="url(#paint38_linear)"/>
<path d="M140.177 193.606H140.183C141.527 193.606 142.617 192.517 142.617 191.172V155.801C142.617 154.457 141.527 153.367 140.183 153.367H140.177C138.832 153.367 137.743 154.457 137.743 155.801V191.172C137.743 192.517 138.832 193.606 140.177 193.606Z" fill="white"/>
<path d="M155.173 221.644C156.418 222.671 156.729 224.452 157.277 226.002C158.036 228.118 159.443 230.042 159.63 232.283C159.711 232.947 159.601 233.621 159.312 234.225C159.034 234.692 158.638 235.078 158.164 235.345C157.69 235.611 157.154 235.749 156.611 235.744C155.521 235.721 154.459 235.398 153.542 234.81C151.919 233.844 150.58 232.468 149.657 230.82C149.187 230.014 148.886 229.12 148.773 228.193C148.518 225.385 151.431 218.656 155.173 221.644Z" fill="#8B93E5"/>
<path d="M157.495 233.522C157.582 233.685 157.628 233.868 157.628 234.054C157.628 234.24 157.582 234.423 157.495 234.586C157.351 234.74 157.161 234.843 156.953 234.879C156.096 235.045 155.207 234.882 154.463 234.424C153.729 233.974 153.056 233.432 152.459 232.812C151.535 232.001 150.717 231.077 150.025 230.061C149.331 229.028 149.049 227.773 149.234 226.543C149.894 223.169 152.869 226.195 153.965 227.44C155.529 229.216 156.728 231.283 157.495 233.522Z" fill="#606161"/>
<path d="M130.801 221.713C129.556 222.74 129.245 224.52 128.697 226.07C127.938 228.187 126.531 230.116 126.344 232.351C126.263 233.018 126.373 233.693 126.662 234.3C126.941 234.766 127.337 235.15 127.811 235.416C128.285 235.681 128.82 235.818 129.363 235.812C130.453 235.793 131.516 235.47 132.432 234.879C134.056 233.914 135.396 232.538 136.317 230.888C136.789 230.083 137.089 229.188 137.201 228.261C137.45 225.454 134.537 218.7 130.801 221.713Z" fill="#8B93E5"/>
<path d="M128.162 233.765C128.076 233.929 128.031 234.111 128.031 234.297C128.031 234.482 128.076 234.665 128.162 234.829C128.308 234.983 128.5 235.086 128.71 235.122C129.568 235.281 130.454 235.119 131.2 234.667C131.93 234.215 132.601 233.673 133.198 233.055C134.126 232.243 134.946 231.317 135.638 230.297C136.33 229.266 136.612 228.014 136.429 226.786C135.763 223.406 132.794 226.431 131.692 227.683C130.129 229.46 128.93 231.526 128.162 233.765Z" fill="#606161"/>
<path d="M144.142 206.828C143.139 207.305 142.032 207.519 140.924 207.451C139.697 207.521 138.466 207.431 137.263 207.183C136.858 207.103 136.477 206.926 136.155 206.667C135.886 206.42 135.674 206.119 135.533 205.783C134.518 203.542 133.373 198.898 134.947 197.012C136.747 194.845 143.887 194.465 146.153 196.738C148.35 198.867 146.756 205.291 144.142 206.828Z" fill="#8B93E5"/>
<path d="M144.142 206.828C143.139 207.305 142.032 207.519 140.924 207.451C139.697 207.521 138.466 207.431 137.263 207.183C136.858 207.103 136.477 206.926 136.155 206.667C135.886 206.42 135.674 206.119 135.533 205.783C134.518 203.542 133.373 198.898 134.947 197.012C136.747 194.845 143.887 194.465 146.153 196.738C148.35 198.867 146.756 205.291 144.142 206.828Z" fill="url(#paint39_linear)"/>
<path d="M139.187 227.888H142.436V206.922H139.187V227.888Z" fill="white"/>
<path d="M153.66 229.631C154.382 230.222 155.086 230.963 156.013 231.075C156.685 231.15 157.358 230.864 158.042 230.864C158.944 230.927 159.793 231.309 160.439 231.94C161.049 232.423 161.507 233.072 161.759 233.808C162.263 235.526 160.732 237.406 158.945 237.58C157.159 237.755 155.44 236.535 154.656 234.929C154.487 234.488 154.265 234.07 153.996 233.683C153.738 233.406 153.437 233.171 153.106 232.986C150.462 231.347 147.547 230.193 144.497 229.581C143.968 229.475 143.32 229.426 142.984 229.843C142.821 230.081 142.732 230.363 142.729 230.652C142.591 231.892 142.535 233.14 142.561 234.387C142.544 234.627 142.589 234.867 142.691 235.084C142.853 235.308 143.051 235.504 143.277 235.663C143.636 236.046 143.862 236.535 143.921 237.056C143.979 237.578 143.867 238.105 143.6 238.558C143.037 239.45 142.174 240.112 141.166 240.425C139.971 240.867 138.465 240.942 137.574 240.027C137.26 239.673 137.05 239.239 136.968 238.773C136.885 238.307 136.934 237.828 137.108 237.387C137.466 236.509 138.129 235.788 138.975 235.358C139.269 235.247 139.524 235.052 139.71 234.798C139.813 234.563 139.851 234.305 139.822 234.051L139.734 231.274C139.761 231.063 139.736 230.848 139.663 230.647C139.589 230.447 139.468 230.267 139.311 230.123C139.062 229.993 138.777 229.952 138.502 230.004C133.927 230.358 129.545 232 125.865 234.742C126.537 235.265 126.419 236.398 125.815 236.995C125.15 237.544 124.296 237.807 123.437 237.73C122.494 237.739 121.568 237.469 120.779 236.952C120.384 236.693 120.062 236.338 119.844 235.919C119.626 235.501 119.519 235.033 119.534 234.561C119.598 234.083 119.784 233.63 120.076 233.246C120.367 232.862 120.753 232.56 121.196 232.37C122.087 231.997 123.066 231.891 124.016 232.065C124.505 232.169 125.005 232.209 125.504 232.183C126.064 232.067 126.596 231.845 127.073 231.53C131.384 229.095 136.166 227.609 141.098 227.172C145.231 226.805 150.317 226.892 153.66 229.631Z" fill="white"/>
<path d="M193.189 145.823H232.513C236.302 145.823 239.373 142.751 239.373 138.963V113.346C239.373 109.558 236.302 106.486 232.513 106.486H193.189C189.401 106.486 186.329 109.558 186.329 113.346V138.963C186.329 142.751 189.401 145.823 193.189 145.823Z" fill="white"/>
<path d="M39.3363 149.079H87.0392C90.7075 149.079 93.6813 146.105 93.6813 142.436V133.348C93.6813 129.679 90.7075 126.706 87.0392 126.706H39.3363C35.668 126.706 32.6942 129.679 32.6942 133.348V142.436C32.6942 146.105 35.668 149.079 39.3363 149.079Z" fill="white"/>
<path d="M43.4138 50.4232L58.9329 42.4302V44.7459L45.8602 51.2636V51.3383L58.9329 57.8871V60.2028L43.4138 52.2098V50.4232Z" fill="#8B93E5"/>
<path d="M61.0806 61.5723L70.4182 37.2944H72.6903L63.3527 61.5723H61.0806Z" fill="#8B93E5"/>
<path d="M90.3385 52.3281L74.8131 60.2899V57.9182L87.9854 51.3694V51.2636L74.8131 44.7148V42.4302L90.3385 50.3921V52.3281Z" fill="#8B93E5"/>
<path d="M121.377 199.141H157.713C162.027 199.141 165.525 195.643 165.525 191.328V190.836C165.525 186.522 162.027 183.024 157.713 183.024H121.377C117.062 183.024 113.564 186.522 113.564 190.836V191.328C113.564 195.643 117.062 199.141 121.377 199.141Z" fill="#8B93E5"/>
<path d="M121.377 199.141H157.713C162.027 199.141 165.525 195.643 165.525 191.328V190.836C165.525 186.522 162.027 183.024 157.713 183.024H121.377C117.062 183.024 113.564 186.522 113.564 190.836V191.328C113.564 195.643 117.062 199.141 121.377 199.141Z" fill="url(#paint40_linear)"/>
<g opacity="0.52">
<path opacity="0.52" d="M206.411 116.664H192.218V117.704H206.411V116.664Z" fill="#8B93E5"/>
<path opacity="0.52" d="M200.884 118.675H192.218V119.652H200.884V118.675Z" fill="#8B93E5"/>
<path opacity="0.52" d="M231.636 118.675H204.376V119.658H231.636V118.675Z" fill="#8B93E5"/>
<path opacity="0.52" d="M208.64 120.698H196.725V121.731H208.64V120.698Z" fill="#8B93E5"/>
<path opacity="0.52" d="M214.741 122.708H200.547V123.748H214.741V122.708Z" fill="#8B93E5"/>
<path opacity="0.52" d="M227.558 122.708H215.662V123.866H227.558V122.708Z" fill="#8B93E5"/>
<path opacity="0.52" d="M211.485 124.726H200.523V125.703H211.485V124.726Z" fill="#8B93E5"/>
<path opacity="0.52" d="M235.153 124.726H212.537V125.809H235.153V124.726Z" fill="#8B93E5"/>
<path opacity="0.52" d="M206.411 127.452H192.218V128.492H206.411V127.452Z" fill="#8B93E5"/>
<path opacity="0.52" d="M200.884 129.463H192.218V130.44H200.884V129.463Z" fill="#8B93E5"/>
<path opacity="0.52" d="M231.636 129.463H204.376V130.446H231.636V129.463Z" fill="#8B93E5"/>
<path opacity="0.52" d="M208.64 131.48H196.725V132.513H208.64V131.48Z" fill="#8B93E5"/>
<path opacity="0.52" d="M214.741 133.497H200.547V134.536H214.741V133.497Z" fill="#8B93E5"/>
<path opacity="0.52" d="M227.558 133.497H215.662V134.654H227.558V133.497Z" fill="#8B93E5"/>
<path opacity="0.52" d="M211.485 135.514H200.523V136.491H211.485V135.514Z" fill="#8B93E5"/>
<path opacity="0.52" d="M235.153 135.514H212.537V136.597H235.153V135.514Z" fill="#8B93E5"/>
</g>
<g opacity="0.52">
<path opacity="0.52" d="M56.2997 131.636H42.1065V132.675H56.2997V131.636Z" fill="#8B93E5"/>
<path opacity="0.52" d="M50.7718 133.652H42.1065V134.63H50.7718V133.652Z" fill="#8B93E5"/>
<path opacity="0.52" d="M81.5238 133.652H54.2641V134.636H81.5238V133.652Z" fill="#8B93E5"/>
<path opacity="0.52" d="M58.5283 135.669H46.6135V136.703H58.5283V135.669Z" fill="#8B93E5"/>
<path opacity="0.52" d="M64.6289 137.687H50.4357V138.726H64.6289V137.687Z" fill="#8B93E5"/>
<path opacity="0.52" d="M77.4525 137.687H65.5564V138.844H77.4525V137.687Z" fill="#8B93E5"/>
<path opacity="0.52" d="M61.3794 139.697H50.417V140.675H61.3794V139.697Z" fill="#8B93E5"/>
<path opacity="0.52" d="M85.0409 139.697H62.4252V140.78H85.0409V139.697Z" fill="#8B93E5"/>
<path opacity="0.52" d="M56.2997 142.424H42.1065V143.463H56.2997V142.424Z" fill="#8B93E5"/>
<path opacity="0.52" d="M50.7718 144.441H42.1065V145.418H50.7718V144.441Z" fill="#8B93E5"/>
<path opacity="0.52" d="M81.5238 144.441H54.2641V145.424H81.5238V144.441Z" fill="#8B93E5"/>
</g>
<path d="M69.9824 203.623C67.9219 199.551 65.4008 195.325 65.8863 190.786C66.1789 188.041 67.5671 185.551 68.9242 183.142L75.0372 172.304C76.9047 174.732 79.9799 176.207 81.2125 179.009C83.1921 183.509 79.345 188.489 79.5504 193.401C79.6873 197.18 82.1961 200.622 82.0404 204.401C81.9408 207.146 77.5957 216.141 74.0786 215.799C72.2173 215.618 71.1528 205.926 69.9824 203.623Z" fill="#8B93E5"/>
<path d="M69.9824 203.623C67.9219 199.551 65.4008 195.325 65.8863 190.786C66.1789 188.041 67.5671 185.551 68.9242 183.142L75.0372 172.304C76.9047 174.732 79.9799 176.207 81.2125 179.009C83.1921 183.509 79.345 188.489 79.5504 193.401C79.6873 197.18 82.1961 200.622 82.0404 204.401C81.9408 207.146 77.5957 216.141 74.0786 215.799C72.2173 215.618 71.1528 205.926 69.9824 203.623Z" fill="url(#paint41_linear)"/>
<path d="M91.0295 201.886C92.4177 201.886 94.142 202.166 94.5404 203.504C94.8641 204.675 93.837 205.751 92.8596 206.474C89.4545 208.964 85.1903 210.875 83.522 214.753C80.7518 221.19 72.9082 217.062 76.967 211.491C78.6478 209.188 80.0795 206.094 82.1712 204.17C84.574 201.948 87.9356 201.848 91.0295 201.886Z" fill="#8B93E5"/>
<path d="M91.0295 201.886C92.4177 201.886 94.142 202.166 94.5404 203.504C94.8641 204.675 93.837 205.751 92.8596 206.474C89.4545 208.964 85.1903 210.875 83.522 214.753C80.7518 221.19 72.9082 217.062 76.967 211.491C78.6478 209.188 80.0795 206.094 82.1712 204.17C84.574 201.948 87.9356 201.848 91.0295 201.886Z" fill="url(#paint42_linear)"/>
<path d="M70.6921 204.861C69.1296 203.081 66.8076 202.203 64.5915 201.382C63.5394 200.996 62.1886 200.678 61.4789 201.525C61.245 201.855 61.1193 202.25 61.1193 202.655C61.1193 203.059 61.245 203.454 61.4789 203.785C61.9671 204.431 62.5631 204.99 63.2406 205.434C64.604 206.433 65.7217 207.73 66.5088 209.225C67.2994 210.838 67.5111 212.674 68.2145 214.33C68.9179 215.986 70.387 217.548 72.1799 217.474C72.8823 217.403 73.5481 217.126 74.0932 216.677C74.6383 216.228 75.0383 215.628 75.2426 214.952C75.9398 212.805 75.0123 211.84 73.8606 210.321C72.5845 208.634 72.1176 206.474 70.6921 204.861Z" fill="#8B93E5"/>
<path d="M70.6921 204.861C69.1296 203.081 66.8076 202.203 64.5915 201.382C63.5394 200.996 62.1886 200.678 61.4789 201.525C61.245 201.855 61.1193 202.25 61.1193 202.655C61.1193 203.059 61.245 203.454 61.4789 203.785C61.9671 204.431 62.5631 204.99 63.2406 205.434C64.604 206.433 65.7217 207.73 66.5088 209.225C67.2994 210.838 67.5111 212.674 68.2145 214.33C68.9179 215.986 70.387 217.548 72.1799 217.474C72.8823 217.403 73.5481 217.126 74.0932 216.677C74.6383 216.228 75.0383 215.628 75.2426 214.952C75.9398 212.805 75.0123 211.84 73.8606 210.321C72.5845 208.634 72.1176 206.474 70.6921 204.861Z" fill="url(#paint43_linear)"/>
<path d="M84.2068 214.809L82.1089 234.437H79.8866C78.1747 233.466 76.4441 232.513 74.7135 231.542L69.6712 228.716L67.8846 214.809H84.2068Z" fill="#8B93E5"/>
<path d="M84.2068 214.809L82.1089 234.437H79.8866C78.1747 233.466 76.4441 232.513 74.7135 231.542L69.6712 228.716L67.8846 214.809H84.2068Z" fill="url(#paint44_linear)"/>
</g>
<defs>
<linearGradient id="paint0_linear" x1="73.1572" y1="96.0779" x2="68.7748" y2="-0.890256" gradientUnits="userSpaceOnUse">
<stop stop-color="white" stop-opacity="0"/>
<stop offset="0.95" stop-color="white"/>
</linearGradient>
<linearGradient id="paint1_linear" x1="39034.3" y1="6581.1" x2="47711.8" y2="8712.47" gradientUnits="userSpaceOnUse">
<stop stop-color="white" stop-opacity="0"/>
<stop offset="0.95" stop-color="white"/>
</linearGradient>
<linearGradient id="paint2_linear" x1="20685.3" y1="-645.682" x2="20723.7" y2="4471.23" gradientUnits="userSpaceOnUse">
<stop stop-color="white" stop-opacity="0"/>
<stop offset="0.95" stop-color="white"/>
</linearGradient>
<linearGradient id="paint3_linear" x1="33629.9" y1="20723" x2="33079" y2="4451.91" gradientUnits="userSpaceOnUse">
<stop stop-color="white" stop-opacity="0"/>
<stop offset="0.95" stop-color="white"/>
</linearGradient>
<linearGradient id="paint4_linear" x1="111.267" y1="40.6869" x2="110.084" y2="103.76" gradientUnits="userSpaceOnUse">
<stop stop-color="white" stop-opacity="0"/>
<stop offset="0.99" stop-color="white"/>
</linearGradient>
<linearGradient id="paint5_linear" x1="3438.02" y1="651.707" x2="3437.71" y2="502.188" gradientUnits="userSpaceOnUse">
<stop stop-color="white" stop-opacity="0"/>
<stop offset="0.99" stop-color="white"/>
</linearGradient>
<linearGradient id="paint6_linear" x1="12766.7" y1="655.053" x2="12766.6" y2="504.256" gradientUnits="userSpaceOnUse">
<stop stop-color="white" stop-opacity="0"/>
<stop offset="0.99" stop-color="white"/>
</linearGradient>
<linearGradient id="paint7_linear" x1="8623.03" y1="653.416" x2="8622.85" y2="502.65" gradientUnits="userSpaceOnUse">
<stop stop-color="white" stop-opacity="0"/>
<stop offset="0.99" stop-color="white"/>
</linearGradient>
<linearGradient id="paint8_linear" x1="4965.11" y1="685.339" x2="4964.86" y2="527.618" gradientUnits="userSpaceOnUse">
<stop stop-color="white" stop-opacity="0"/>
<stop offset="0.99" stop-color="white"/>
</linearGradient>
<linearGradient id="paint9_linear" x1="6162.28" y1="695.198" x2="6162.06" y2="535.568" gradientUnits="userSpaceOnUse">
<stop stop-color="white" stop-opacity="0"/>
<stop offset="0.99" stop-color="white"/>
</linearGradient>
<linearGradient id="paint10_linear" x1="5816.22" y1="760.782" x2="5815.9" y2="583.486" gradientUnits="userSpaceOnUse">
<stop stop-color="white" stop-opacity="0"/>
<stop offset="0.99" stop-color="white"/>
</linearGradient>
<linearGradient id="paint11_linear" x1="4719.25" y1="660.214" x2="4719" y2="510.694" gradientUnits="userSpaceOnUse">
<stop stop-color="white" stop-opacity="0"/>
<stop offset="0.99" stop-color="white"/>
</linearGradient>
<linearGradient id="paint12_linear" x1="11117.9" y1="720.836" x2="11117.8" y2="554.914" gradientUnits="userSpaceOnUse">
<stop stop-color="white" stop-opacity="0"/>
<stop offset="0.99" stop-color="white"/>
</linearGradient>
<linearGradient id="paint13_linear" x1="5710.28" y1="661.711" x2="5710.06" y2="502.082" gradientUnits="userSpaceOnUse">
<stop stop-color="white" stop-opacity="0"/>
<stop offset="0.99" stop-color="white"/>
</linearGradient>
<linearGradient id="paint14_linear" x1="3438.02" y1="629.401" x2="3437.71" y2="479.867" gradientUnits="userSpaceOnUse">
<stop stop-color="white" stop-opacity="0"/>
<stop offset="0.99" stop-color="white"/>
</linearGradient>
<linearGradient id="paint15_linear" x1="12766.7" y1="632.391" x2="12766.6" y2="481.594" gradientUnits="userSpaceOnUse">
<stop stop-color="white" stop-opacity="0"/>
<stop offset="0.99" stop-color="white"/>
</linearGradient>
<linearGradient id="paint16_linear" x1="8623.03" y1="630.784" x2="8622.85" y2="479.988" gradientUnits="userSpaceOnUse">
<stop stop-color="white" stop-opacity="0"/>
<stop offset="0.99" stop-color="white"/>
</linearGradient>
<linearGradient id="paint17_linear" x1="4965.11" y1="660.903" x2="4964.86" y2="503.166" gradientUnits="userSpaceOnUse">
<stop stop-color="white" stop-opacity="0"/>
<stop offset="0.99" stop-color="white"/>
</linearGradient>
<linearGradient id="paint18_linear" x1="6162.28" y1="670.253" x2="6162.06" y2="510.623" gradientUnits="userSpaceOnUse">
<stop stop-color="white" stop-opacity="0"/>
<stop offset="0.99" stop-color="white"/>
</linearGradient>
<linearGradient id="paint19_linear" x1="5816.23" y1="731.29" x2="5815.9" y2="553.994" gradientUnits="userSpaceOnUse">
<stop stop-color="white" stop-opacity="0"/>
<stop offset="0.99" stop-color="white"/>
</linearGradient>
<linearGradient id="paint20_linear" x1="4719.25" y1="637.89" x2="4719" y2="488.371" gradientUnits="userSpaceOnUse">
<stop stop-color="white" stop-opacity="0"/>
<stop offset="0.99" stop-color="white"/>
</linearGradient>
<linearGradient id="paint21_linear" x1="11117.9" y1="694.294" x2="11117.8" y2="528.355" gradientUnits="userSpaceOnUse">
<stop stop-color="white" stop-opacity="0"/>
<stop offset="0.99" stop-color="white"/>
</linearGradient>
<linearGradient id="paint22_linear" x1="5710.28" y1="636.776" x2="5710.06" y2="477.163" gradientUnits="userSpaceOnUse">
<stop stop-color="white" stop-opacity="0"/>
<stop offset="0.99" stop-color="white"/>
</linearGradient>
<linearGradient id="paint23_linear" x1="3438.02" y1="607.074" x2="3437.71" y2="457.54" gradientUnits="userSpaceOnUse">
<stop stop-color="white" stop-opacity="0"/>
<stop offset="0.99" stop-color="white"/>
</linearGradient>
<linearGradient id="paint24_linear" x1="12766.7" y1="609.732" x2="12766.6" y2="458.952" gradientUnits="userSpaceOnUse">
<stop stop-color="white" stop-opacity="0"/>
<stop offset="0.99" stop-color="white"/>
</linearGradient>
<linearGradient id="paint25_linear" x1="8623.03" y1="608.126" x2="8622.85" y2="457.331" gradientUnits="userSpaceOnUse">
<stop stop-color="white" stop-opacity="0"/>
<stop offset="0.99" stop-color="white"/>
</linearGradient>
<linearGradient id="paint26_linear" x1="4965.11" y1="636.454" x2="4964.86" y2="478.718" gradientUnits="userSpaceOnUse">
<stop stop-color="white" stop-opacity="0"/>
<stop offset="0.99" stop-color="white"/>
</linearGradient>
<linearGradient id="paint27_linear" x1="6162.28" y1="645.313" x2="6162.06" y2="485.682" gradientUnits="userSpaceOnUse">
<stop stop-color="white" stop-opacity="0"/>
<stop offset="0.99" stop-color="white"/>
</linearGradient>
<linearGradient id="paint28_linear" x1="5816.23" y1="701.766" x2="5815.9" y2="524.471" gradientUnits="userSpaceOnUse">
<stop stop-color="white" stop-opacity="0"/>
<stop offset="0.99" stop-color="white"/>
</linearGradient>
<linearGradient id="paint29_linear" x1="4719.25" y1="615.568" x2="4719" y2="466.033" gradientUnits="userSpaceOnUse">
<stop stop-color="white" stop-opacity="0"/>
<stop offset="0.99" stop-color="white"/>
</linearGradient>
<linearGradient id="paint30_linear" x1="11117.9" y1="667.716" x2="11117.8" y2="501.776" gradientUnits="userSpaceOnUse">
<stop stop-color="white" stop-opacity="0"/>
<stop offset="0.99" stop-color="white"/>
</linearGradient>
<linearGradient id="paint31_linear" x1="156.019" y1="154.376" x2="166.826" y2="154.376" gradientUnits="userSpaceOnUse">
<stop stop-color="#E5C6D6"/>
<stop offset="0.42" stop-color="#EAD4D0"/>
<stop offset="1" stop-color="#F0E9CB"/>
</linearGradient>
<linearGradient id="paint32_linear" x1="2929.23" y1="3271.81" x2="3107.54" y2="3271.81" gradientUnits="userSpaceOnUse">
<stop stop-color="#E5C6D6"/>
<stop offset="0.42" stop-color="#EAD4D0"/>
<stop offset="1" stop-color="#F0E9CB"/>
</linearGradient>
<linearGradient id="paint33_linear" x1="1722.65" y1="1331.15" x2="1760.98" y2="1331.15" gradientUnits="userSpaceOnUse">
<stop stop-color="#E5C6D6"/>
<stop offset="0.42" stop-color="#EAD4D0"/>
<stop offset="1" stop-color="#F0E9CB"/>
</linearGradient>
<linearGradient id="paint34_linear" x1="1562.12" y1="1282.69" x2="1602.07" y2="1282.69" gradientUnits="userSpaceOnUse">
<stop stop-color="#E5C6D6"/>
<stop offset="0.42" stop-color="#EAD4D0"/>
<stop offset="1" stop-color="#F0E9CB"/>
</linearGradient>
<linearGradient id="paint35_linear" x1="3228.96" y1="2554.56" x2="3398.45" y2="2554.56" gradientUnits="userSpaceOnUse">
<stop stop-color="#E5C6D6"/>
<stop offset="0.42" stop-color="#EAD4D0"/>
<stop offset="1" stop-color="#F0E9CB"/>
</linearGradient>
<linearGradient id="paint36_linear" x1="123.07" y1="172.927" x2="156.76" y2="172.927" gradientUnits="userSpaceOnUse">
<stop stop-color="#010101" stop-opacity="0"/>
<stop offset="0.95" stop-color="#010101"/>
</linearGradient>
<linearGradient id="paint37_linear" x1="7175.74" y1="6388.02" x2="9225.33" y2="6388.02" gradientUnits="userSpaceOnUse">
<stop stop-color="#010101" stop-opacity="0"/>
<stop offset="0.95" stop-color="#010101"/>
</linearGradient>
<linearGradient id="paint38_linear" x1="4882.03" y1="2277.15" x2="4876.24" y2="2801.86" gradientUnits="userSpaceOnUse">
<stop stop-color="#010101" stop-opacity="0"/>
<stop offset="0.95" stop-color="#010101"/>
</linearGradient>
<linearGradient id="paint39_linear" x1="4139.55" y1="4285.8" x2="4175.24" y2="3961.31" gradientUnits="userSpaceOnUse">
<stop stop-color="#010101" stop-opacity="0"/>
<stop offset="0.95" stop-color="#010101"/>
</linearGradient>
<linearGradient id="paint40_linear" x1="16045.8" y1="4875.1" x2="16050.2" y2="5449.82" gradientUnits="userSpaceOnUse">
<stop stop-color="#010101" stop-opacity="0"/>
<stop offset="0.95" stop-color="#010101"/>
</linearGradient>
<linearGradient id="paint41_linear" x1="3337.28" y1="14182.4" x2="3371.11" y2="17385.3" gradientUnits="userSpaceOnUse">
<stop stop-color="#010101" stop-opacity="0"/>
<stop offset="0.95" stop-color="#010101"/>
</linearGradient>
<linearGradient id="paint42_linear" x1="4177.12" y1="5575.89" x2="4309.47" y2="6168.26" gradientUnits="userSpaceOnUse">
<stop stop-color="#010101" stop-opacity="0"/>
<stop offset="0.95" stop-color="#010101"/>
</linearGradient>
<linearGradient id="paint43_linear" x1="2859.49" y1="5657.14" x2="2572.94" y2="6262.65" gradientUnits="userSpaceOnUse">
<stop stop-color="#010101" stop-opacity="0"/>
<stop offset="0.95" stop-color="#010101"/>
</linearGradient>
<linearGradient id="paint44_linear" x1="3458.49" y1="7081.76" x2="3042" y2="8087.82" gradientUnits="userSpaceOnUse">
<stop stop-color="#010101" stop-opacity="0"/>
<stop offset="0.95" stop-color="#010101"/>
</linearGradient>
<clipPath id="clip0">
<rect width="261.591" height="253" fill="white"/>
</clipPath>
</defs>
</svg>
