<svg width="30" height="30" viewBox="0 0 30 30" fill="none" xmlns="http://www.w3.org/2000/svg">
<g clip-path="url(#clip0)">
<path d="M28.4616 1.75977H19.108C18.2588 1.75977 17.5696 2.44897 17.5696 3.29817V12.6517C17.5696 13.5009 18.2588 14.1901 19.108 14.1901H23.5848C23.5264 16.6392 22.9572 18.5991 21.8803 20.0729C21.0311 21.236 19.745 22.199 18.025 22.959C17.2343 23.3067 16.8927 24.242 17.262 25.0235L18.3696 27.3619C18.7265 28.1126 19.6096 28.4419 20.3726 28.1126C22.4095 27.2327 24.1294 26.1189 25.5324 24.7651C27.2432 23.1128 28.4154 21.2483 29.0493 19.1684C29.6831 17.0884 30 14.2516 30 10.6517V3.29817C30 2.449 29.3108 1.75977 28.4616 1.75977Z" fill="white"/>
<path d="M3.26256 28.1065C5.27479 27.2296 6.9855 26.1158 8.39775 24.7651C10.1238 23.1128 11.3023 21.2544 11.9361 19.1899C12.5699 17.1254 12.8868 14.2793 12.8868 10.6517V3.29817C12.8868 2.44897 12.1976 1.75977 11.3484 1.75977H1.99488C1.14568 1.75977 0.456479 2.44897 0.456479 3.29817V12.6517C0.456479 13.5009 1.14568 14.1901 1.99488 14.1901H6.47164C6.41318 16.6392 5.84397 18.5991 4.76709 20.0729C3.91789 21.236 2.63178 22.199 0.911846 22.959C0.121106 23.3067 -0.22042 24.242 0.148798 25.0236L1.25337 27.3558C1.61031 28.1065 2.49951 28.4388 3.26256 28.1065Z" fill="white"/>
</g>
<defs>
<clipPath id="clip0">
<rect width="30" height="30" fill="white"/>
</clipPath>
</defs>
</svg>
