<svg width="255" height="253" viewBox="0 0 255 253" fill="none" xmlns="http://www.w3.org/2000/svg">
<g clip-path="url(#clip0)">
<path opacity="0.18" d="M42.753 18.6898C23.5724 34.6783 12.2219 59.2599 11.1257 84.1884C10.4857 98.8706 13.1684 113.58 12.0041 128.228C9.8184 155.443 -5.53566 182.433 2.11754 208.62C9.98181 235.528 39.8661 250.354 67.837 252.572C95.808 254.79 123.636 247.741 151.668 246.693C166.934 246.115 182.274 247.326 197.465 245.72C212.655 244.115 228.146 239.338 239.054 228.657C249.961 217.975 255.048 202.578 254.993 187.447C254.939 172.316 250.064 157.511 243.125 144.088C235.826 129.936 226.103 116.662 222.699 101.102C217.932 79.1877 225.735 53.3951 211.804 35.7873C203.171 24.9015 188.702 20.8669 175.22 17.4583C152.805 11.8045 129.873 3.82383 106.913 0.809823C95.3962 -0.817174 83.667 -0.0505024 72.4603 3.06183C68.1775 4.26607 42.753 12.9203 42.753 18.6898Z" fill="#8B93E5"/>
<path d="M170.624 92.3117C194.371 92.3117 213.622 73.0757 213.622 49.3468C213.622 25.6179 194.371 6.38184 170.624 6.38184C146.877 6.38184 127.626 25.6179 127.626 49.3468C127.626 73.0757 146.877 92.3117 170.624 92.3117Z" fill="url(#paint0_radial)"/>
<path d="M126.72 226.881C181.333 226.881 225.606 217.654 225.606 206.273C225.606 194.891 181.333 185.665 126.72 185.665C72.1074 185.665 27.8348 194.891 27.8348 206.273C27.8348 217.654 72.1074 226.881 126.72 226.881Z" fill="url(#paint1_linear)"/>
<path d="M170.365 207.436C170.562 208.107 170.928 208.716 171.428 209.205C171.909 209.571 172.476 209.805 173.075 209.885C175.118 210.239 177.842 208.15 177.576 207.028C177.31 205.905 177.699 201.973 177.494 200.837C177.448 200.328 177.314 199.831 177.099 199.367C176.487 198.312 175.023 198.197 173.811 198.312C172.197 198.476 169.685 198.993 169.187 200.775C168.67 202.694 169.712 205.654 170.365 207.436Z" fill="#F5BBB9"/>
<path d="M105.974 94.4075C103.699 96.0948 103.005 99.3265 103.638 102.089C104.271 104.851 105.987 107.232 107.798 109.409C112.454 115.016 117.97 119.85 124.14 123.731C126.387 125.139 128.797 126.453 131.439 126.745C134.408 127.072 137.356 126.065 140.182 125.126C141.507 124.756 142.756 124.155 143.872 123.35C144.978 122.357 145.831 121.114 146.357 119.724C147.763 116.362 148.525 112.766 148.604 109.124C148.781 104.327 147.78 104.252 146.105 99.7551C144.852 96.3533 142.817 92.3936 139.337 93.3529C130.023 95.9111 132.739 105.872 132.746 110.396C129.675 106.783 123.97 101.592 120.402 98.4692C117.46 95.8634 109.909 91.4955 105.974 94.4075Z" fill="#8B93E5"/>
<path d="M105.974 94.4075C103.699 96.0948 103.005 99.3265 103.638 102.089C104.271 104.851 105.987 107.232 107.798 109.409C112.454 115.016 117.97 119.85 124.14 123.731C126.387 125.139 128.797 126.453 131.439 126.745C134.408 127.072 137.356 126.065 140.182 125.126C141.507 124.756 142.756 124.155 143.872 123.35C144.978 122.357 145.831 121.114 146.357 119.724C147.763 116.362 148.525 112.766 148.604 109.124C148.781 104.327 147.78 104.252 146.105 99.7551C144.852 96.3533 142.817 92.3936 139.337 93.3529C130.023 95.9111 132.739 105.872 132.746 110.396C129.675 106.783 123.97 101.592 120.402 98.4692C117.46 95.8634 109.909 91.4955 105.974 94.4075Z" fill="url(#paint2_linear)"/>
<path d="M135.204 79.7453C134.319 81.4258 135.143 83.6166 134.292 85.3107C133.781 86.2085 132.972 86.8994 132.004 87.2633C130.316 87.9845 128.395 88.0865 126.748 88.8826C125.287 89.5909 124.128 90.7974 123.479 92.2844C122.846 93.7812 122.71 95.5774 121.525 96.6931C120.102 98.0539 117.828 97.7749 115.942 97.2442C114.648 96.8836 113.273 96.353 112.578 95.2031C112.181 94.436 112 93.5752 112.054 92.713C112.054 90.6311 112.674 88.5968 113.075 86.5557C113.654 83.6234 113.852 80.623 114.539 77.711C115.227 74.799 116.473 71.9143 118.734 69.9549C120.994 67.9954 125.958 62.9403 128.811 63.437C131.534 63.92 132.147 69.9821 133.672 72.2817C134.187 73.1574 134.642 74.0666 135.034 75.0032C135.994 77.017 136.246 77.779 135.204 79.7453Z" fill="#F5BBB9"/>
<path d="M130.847 64.4916C130.288 66.3014 128.511 67.4036 126.891 68.3833C125.27 69.363 123.52 70.54 123.091 72.3838C122.819 73.5132 123.091 74.7923 122.41 75.7856C122.191 75.2807 121.882 74.8196 121.498 74.4249C121.301 74.2314 121.055 74.0949 120.786 74.0302C120.518 73.9655 120.236 73.9749 119.973 74.0575C119.7 74.203 119.475 74.4229 119.323 74.6916C119.171 74.9602 119.099 75.2665 119.115 75.5747C119.122 76.2393 119.362 76.8804 119.792 77.3872C120.222 77.8941 120.816 78.2349 121.471 78.3506C120.686 79.4854 120.178 80.7878 119.986 82.1538C119.789 83.569 119.891 85.1406 118.992 86.236C118.513 86.7865 117.84 87.1321 117.113 87.2017C116.386 87.2714 115.66 87.0596 115.084 86.6102C114.882 87.0731 114.542 87.4627 114.11 87.726C112.96 87.1273 112.987 85.5284 112.749 84.2562C112.183 80.8543 108.983 78.4799 107.921 75.2005C107.457 73.4253 107.339 71.5774 107.574 69.7576C107.607 68.0221 107.956 66.307 108.602 64.6957C109.749 62.488 111.65 60.7644 113.961 59.8379C116.046 58.9939 118.224 58.4001 120.449 58.069C122.278 57.6286 124.138 57.3262 126.012 57.1641C129.471 57.0552 131.779 61.4708 130.847 64.4916Z" fill="#2E2E3F"/>
<path d="M162.419 139.379C163.102 139.372 163.781 139.48 164.428 139.699C165.015 139.964 165.546 140.338 165.994 140.801C171.196 145.672 172.769 153.177 174.076 160.178C176.276 171.921 178.475 183.718 178.774 195.659C178.836 198.013 179.789 200.156 178.686 202.231C177.583 204.306 172.524 204.51 170.297 203.748C168.071 202.986 168.622 202.095 167.724 199.897C165.892 195.448 163.305 191.366 160.738 187.284L151.355 172.431C149.857 170.064 148.298 167.628 146.003 166.009C142.776 163.736 138.622 163.43 134.741 162.716C130.86 162.001 126.659 160.484 124.875 156.967C121.682 150.646 125.917 142.046 132.712 141.243C142.626 140.053 152.41 138.978 162.419 139.379Z" fill="#2E2E3F"/>
<path d="M162.419 139.379C163.102 139.372 163.781 139.48 164.428 139.699C165.015 139.964 165.546 140.338 165.994 140.801C171.196 145.672 172.769 153.177 174.076 160.178C176.276 171.921 178.475 183.718 178.774 195.659C178.836 198.013 179.285 200.054 178.182 202.136C177.079 204.218 173.641 204.708 171.407 203.952C169.174 203.197 168.622 202.095 167.724 199.87C165.892 195.448 163.305 191.366 160.738 187.283L151.355 172.431C149.857 170.064 148.298 167.628 146.003 166.009C142.776 163.736 138.622 163.43 134.741 162.716C130.86 162.001 126.659 160.484 124.875 156.966C121.682 150.646 125.917 142.046 132.712 141.243C142.626 140.053 152.41 138.978 162.419 139.379Z" fill="url(#paint3_linear)"/>
<path d="M173.436 177.901C173.538 178.645 173.768 179.366 174.117 180.031C175.064 181.643 177.093 182.31 178.972 182.344C179.776 182.4 180.581 182.238 181.3 181.875C181.713 181.609 182.07 181.264 182.349 180.86C182.628 180.456 182.825 180.001 182.928 179.521C183.133 178.562 183.186 177.577 183.084 176.602C182.962 174.505 182.703 172.419 182.308 170.356C182.274 170.046 182.159 169.751 181.975 169.499C181.532 168.989 180.715 169.145 180.068 169.342C178.448 169.832 174.464 170.24 173.314 171.499C172.02 172.935 173.436 176.2 173.436 177.901Z" fill="#F5BBB9"/>
<path d="M182.376 179.262C181.545 179.522 180.729 179.829 179.932 180.181C178.874 180.547 177.743 180.649 176.636 180.48C175.445 180.29 173.988 179.875 173.232 180.807C173.033 181.131 172.906 181.495 172.859 181.873C172.812 182.25 172.846 182.634 172.96 182.997C173.227 184.441 173.626 185.858 174.151 187.229C174.309 187.724 174.556 188.185 174.88 188.59C175.69 189.495 177.052 189.604 178.284 189.651C182.62 189.903 186.967 189.903 191.303 189.651C192.603 189.556 194.203 189.161 194.489 187.889C194.579 187.18 194.386 186.464 193.951 185.896C192.658 183.855 190.615 182.494 188.504 181.419C186.659 180.48 184.494 178.806 182.376 179.262Z" fill="#2E2E3F"/>
<path d="M177.188 206.116C176.477 206.337 175.779 206.598 175.098 206.899C174.194 207.207 173.229 207.291 172.285 207.144C171.271 206.98 170.025 206.626 169.364 207.423C169.195 207.7 169.086 208.01 169.046 208.333C169.006 208.656 169.036 208.983 169.133 209.294C169.364 210.523 169.703 211.73 170.147 212.899C170.285 213.315 170.497 213.703 170.774 214.042C171.455 214.811 172.626 214.907 173.661 214.947C177.364 215.162 181.077 215.162 184.78 214.947C185.89 214.866 187.251 214.526 187.503 213.444C187.543 213.144 187.524 212.84 187.445 212.548C187.367 212.256 187.232 211.982 187.047 211.743C185.866 210.074 184.258 208.753 182.39 207.919C180.844 207.144 178.992 205.722 177.188 206.116Z" fill="#2E2E3F"/>
<path d="M111.646 89.9917C106.621 92.0872 103.005 96.6048 100.275 101.313C93.6768 112.675 91.0009 125.806 88.4204 138.692C87.8893 141.359 87.3514 144.067 87.5692 146.782C87.6486 147.929 87.9106 149.057 88.3455 150.122C90.0205 154.075 94.4735 156.211 98.7835 156.47C102.583 156.708 106.348 155.79 110.114 155.218C113.28 154.769 116.487 154.606 119.585 153.857C122.683 153.109 125.713 151.592 127.646 149.047C129.866 146.094 130.261 142.196 130.581 138.522L132.29 118.587C132.801 112.614 133.277 106.341 130.928 100.843C129.299 97.1103 126.501 94.0065 122.955 91.9987C119.591 89.9917 115.356 88.4064 111.646 89.9917Z" fill="#8B93E5"/>
<path d="M132.29 118.52L131.943 122.561C131.489 127.863 131.035 133.161 130.581 138.454C130.343 141.176 130.07 143.965 129.063 146.435C128.704 147.341 128.228 148.197 127.646 148.98C125.733 151.524 122.683 153.014 119.585 153.79C116.487 154.565 113.273 154.735 110.114 155.15C106.341 155.688 102.583 156.64 98.7835 156.402C94.5007 156.144 90.0136 154.007 88.3387 150.054C87.9092 148.988 87.6496 147.861 87.5692 146.714C87.3514 143.992 87.8893 141.271 88.4204 138.624C91.0009 125.745 93.6768 112.607 100.275 101.245C102.998 96.5371 106.621 92.0195 111.652 89.9239C115.363 88.3727 119.591 89.9716 122.969 91.897C126.515 93.904 129.314 97.008 130.942 100.742C133.277 106.321 132.801 112.546 132.29 118.52Z" fill="url(#paint4_linear)"/>
<path d="M132.154 116.784C132.086 118.71 132.011 120.635 131.943 122.56C131.489 127.863 131.035 133.161 130.581 138.454C130.343 141.175 130.07 143.965 129.063 146.434C127.251 148.224 124.473 148.816 121.913 149.278C121.774 149.346 121.62 149.374 121.466 149.359C121.312 149.344 121.165 149.287 121.042 149.194C120.919 149.101 120.824 148.976 120.767 148.832C120.71 148.689 120.695 148.532 120.722 148.38C120.191 142.114 122.369 135.95 122.764 129.67C123.045 125.158 122.408 120.636 120.892 116.376C120.041 113.981 114.907 107.028 120.708 107.286C121.928 107.429 123.096 107.863 124.113 108.552C126.591 110.03 128.878 111.808 130.921 113.845C131.374 114.24 131.731 114.734 131.963 115.287C132.119 115.77 132.184 116.278 132.154 116.784Z" fill="url(#paint5_linear)"/>
<path d="M133.059 88.8417C132.91 88.502 132.841 88.1322 132.859 87.7615C132.876 87.3907 132.98 87.0291 133.162 86.7053C133.579 86.2529 134.134 85.9515 134.741 85.8481C135.674 85.5827 136.621 85.3514 137.574 85.1677C137.995 85.0542 138.432 85.0106 138.867 85.0384C139.909 85.1541 140.692 86.0113 141.366 86.8006C142.097 87.5561 142.675 88.4455 143.069 89.42C143.317 90.3578 143.393 91.3329 143.293 92.2979L143.205 94.4955C143.207 94.9001 143.142 95.3023 143.014 95.6861C142.83 96.1079 142.53 96.4689 142.149 96.7271C141.445 97.197 140.631 97.4781 139.787 97.5435C138.827 97.6456 137.349 97.5775 136.723 96.6999C136.314 96.1352 136.444 95.1894 136.164 94.5295C135.334 92.5224 133.74 90.91 133.059 88.8417Z" fill="#F5BBB9"/>
<path d="M89.748 152.347H89.4825L89.6323 151.422C88.5156 161.035 91.7226 172.56 101.997 175.432C110.849 177.901 119.34 177.962 127.871 175.125C134.796 172.833 141.359 168.226 146.732 163.307C151.369 159.062 154.95 153.782 159.709 149.7C160.819 151.442 162.433 152.639 163.652 154.293C165.17 156.334 165.34 158.593 166.164 160.892C167.036 163.341 168.588 165.444 169.644 167.805C171.788 172.567 172.701 174.826 178.175 174.833C180 174.833 180.803 175.159 182.022 173.792C184.01 171.553 183.255 165.253 183.125 162.579C182.655 153.136 181.246 143.223 177.944 134.331C176.119 129.425 173.858 124.595 170.154 120.846C165.163 115.825 159.539 117.839 154.147 121.016C147.576 124.894 141.714 130.691 136.253 136.045C133.992 138.256 132.562 140.243 129.852 142.06C126.85 144.101 123.922 145.652 120.729 147.38C111.7 152.265 99.6958 152.347 89.748 152.347Z" fill="#2E2E3F"/>
<path d="M165.211 199.952C165.133 200.872 164.972 201.783 164.728 202.673C162.978 209.035 156.809 213.41 150.381 214.92C143.954 216.43 137.233 215.6 130.69 214.723C116.071 212.756 33.4044 207.062 43.182 110.158C44.3531 98.4826 51.4957 83.0451 62.601 80.8067C64.7159 80.3862 66.8982 80.4444 68.9877 80.9768C92.1924 86.7123 74.2033 128.133 106.055 142.767C115.52 147.115 123.418 154.395 133.134 158.137C150.483 164.838 161.051 184.113 161.051 184.113C163.325 189.127 165.647 194.591 165.211 199.952Z" fill="#8B93E5"/>
<path d="M170.427 107.783C172.537 109.539 173.15 112.512 173.205 115.267C173.268 115.84 173.136 116.418 172.83 116.907C172.608 117.152 172.342 117.355 172.047 117.506C170.474 118.431 168.643 119.383 166.913 118.819C165.395 118.322 164.428 116.778 162.95 116.172C161.732 115.669 160.227 115.812 159.246 114.907C158.834 114.484 158.551 113.953 158.429 113.376C156.611 106.035 165.783 103.932 170.427 107.783Z" fill="#F5BBB9"/>
<path d="M138.602 104.082C139.337 104.732 140.177 105.252 141.087 105.62C142.07 105.893 143.098 105.967 144.11 105.837C149.986 105.375 155.978 103.442 161.657 105.028C162.478 105.195 163.228 105.608 163.808 106.212C164.291 106.883 164.531 107.699 164.489 108.525C164.489 112.607 161.167 116.009 157.503 117.88C153.289 120.016 148.516 120.73 143.838 121.418C140.665 121.88 137.458 122.343 134.258 122.044C132.793 121.998 131.366 121.563 130.125 120.785C102.447 100.796 112.095 97.8226 113.974 92.1076C114.955 89.1208 127.299 95.1148 130.172 97.394C133.046 99.6732 135.783 101.85 138.602 104.082Z" fill="#8B93E5"/>
<path d="M165.211 199.952C165.133 200.872 164.972 201.783 164.728 202.673C162.978 209.035 156.809 213.41 150.381 214.92C143.954 216.43 137.233 215.6 130.69 214.723C116.071 212.756 33.4044 207.062 43.182 110.158C44.3531 98.4825 51.4957 83.045 62.601 80.8066C63.1253 83.8683 60.4289 87.5354 59.4076 90.8352C56.1396 101.544 55.4789 112.878 57.4807 123.894C58.6057 130.17 60.6186 136.255 63.4589 141.965C67.3468 149.727 72.6782 156.674 78.207 163.376C82.3604 168.41 86.7453 173.418 92.3422 176.772C97.4012 179.806 103.236 181.344 108.983 182.582C116.612 184.223 124.331 185.418 132.099 186.161C142.565 187.161 154.092 187.746 161.725 195.006C163.227 196.387 164.416 198.073 165.211 199.952Z" fill="url(#paint6_linear)"/>
<path d="M184.412 38.1073C184.419 40.3778 183.87 42.6155 182.812 44.6252L177.011 59.0965H162.808L157.415 43.8223C156.611 42.0244 156.198 40.0765 156.203 38.1073C156.284 34.423 157.806 30.9169 160.442 28.3399C163.078 25.7629 166.62 24.3198 170.308 24.3198C173.996 24.3198 177.537 25.7629 180.173 28.3399C182.81 30.9169 184.331 34.423 184.412 38.1073Z" fill="#8B93E5"/>
<path opacity="0.69" d="M184.412 38.1073C184.419 40.3778 183.87 42.6155 182.812 44.6252L177.011 59.0965H162.808L157.415 43.8223C156.611 42.0244 156.198 40.0765 156.203 38.1073C156.284 34.423 157.806 30.9169 160.442 28.3399C163.078 25.7629 166.62 24.3198 170.308 24.3198C173.996 24.3198 177.537 25.7629 180.173 28.3399C182.81 30.9169 184.331 34.423 184.412 38.1073Z" fill="url(#paint7_radial)"/>
<path d="M168.003 59.3276C165.929 55.0023 164.841 50.2714 164.816 45.4754C164.816 44.4005 164.966 43.135 165.912 42.6111C167.063 41.9716 168.486 42.9717 169.119 44.1283C169.523 44.888 169.762 45.7241 169.821 46.5822C169.879 47.4403 169.756 48.3011 169.46 49.1086C168.779 48.0999 168.393 46.9222 168.343 45.7068C168.195 44.8146 168.251 43.9005 168.507 43.0329C168.641 42.6021 168.898 42.2196 169.246 41.9321C169.594 41.6446 170.019 41.4645 170.468 41.4137C171.829 41.366 172.755 42.9173 172.905 44.2916C173.08 45.8615 172.717 47.4442 171.877 48.782C171.586 47.8974 171.534 46.9518 171.725 46.0404C171.916 45.1291 172.344 44.2842 172.966 43.5908C173.377 43.1069 173.93 42.7642 174.546 42.6111C174.854 42.5407 175.175 42.5589 175.473 42.6637C175.77 42.7685 176.032 42.9555 176.228 43.203C176.419 43.5071 176.536 43.8521 176.568 44.21C176.929 46.809 176.03 49.4215 174.9 51.796C173.77 54.1705 172.408 56.4497 171.748 58.9943" stroke="white" stroke-width="0.79" stroke-miterlimit="10"/>
<path d="M176.146 58.9331H163.366C162.486 58.9331 161.773 59.6459 161.773 60.5252V64.9543C161.773 65.8336 162.486 66.5464 163.366 66.5464H176.146C177.026 66.5464 177.739 65.8336 177.739 64.9543V60.5252C177.739 59.6459 177.026 58.9331 176.146 58.9331Z" fill="#8B93E5"/>
<path d="M176.146 58.9331H163.366C162.486 58.9331 161.773 59.6459 161.773 60.5252V64.9543C161.773 65.8336 162.486 66.5464 163.366 66.5464H176.146C177.026 66.5464 177.739 65.8336 177.739 64.9543V60.5252C177.739 59.6459 177.026 58.9331 176.146 58.9331Z" fill="url(#paint8_linear)"/>
<path d="M177.44 61.457H162.256C161.519 61.457 160.921 62.0541 160.921 62.7905V62.8858C160.921 63.6223 161.519 64.2193 162.256 64.2193H177.44C178.177 64.2193 178.774 63.6223 178.774 62.8858V62.7905C178.774 62.0541 178.177 61.457 177.44 61.457Z" fill="#8B93E5"/>
<path d="M177.44 61.457H162.256C161.519 61.457 160.921 62.0541 160.921 62.7905V62.8858C160.921 63.6223 161.519 64.2193 162.256 64.2193H177.44C178.177 64.2193 178.774 63.6223 178.774 62.8858V62.7905C178.774 62.0541 178.177 61.457 177.44 61.457Z" fill="url(#paint9_linear)"/>
</g>
<defs>
<radialGradient id="paint0_radial" cx="0" cy="0" r="1" gradientUnits="userSpaceOnUse" gradientTransform="translate(170.624 49.3468) scale(28.9718 28.9495)">
<stop stop-color="white"/>
<stop offset="1" stop-color="white" stop-opacity="0"/>
</radialGradient>
<linearGradient id="paint1_linear" x1="128.511" y1="101.374" x2="124.881" y2="314.151" gradientUnits="userSpaceOnUse">
<stop offset="0.01"/>
<stop offset="0.13" stop-opacity="0.69"/>
<stop offset="1" stop-opacity="0"/>
</linearGradient>
<linearGradient id="paint2_linear" x1="9937.8" y1="5887.69" x2="11404.8" y2="6696.7" gradientUnits="userSpaceOnUse">
<stop offset="0.01"/>
<stop offset="0.13" stop-opacity="0.69"/>
<stop offset="1" stop-opacity="0"/>
</linearGradient>
<linearGradient id="paint3_linear" x1="14200.6" y1="16014.6" x2="17009.7" y2="21345.5" gradientUnits="userSpaceOnUse">
<stop offset="0.01"/>
<stop offset="0.13" stop-opacity="0.69"/>
<stop offset="1" stop-opacity="0"/>
</linearGradient>
<linearGradient id="paint4_linear" x1="7445.83" y1="14892.3" x2="10565.4" y2="13842.5" gradientUnits="userSpaceOnUse">
<stop offset="0.01"/>
<stop offset="0.13" stop-opacity="0.69"/>
<stop offset="1" stop-opacity="0"/>
</linearGradient>
<linearGradient id="paint5_linear" x1="4012.4" y1="9111.49" x2="2682.33" y2="9061.26" gradientUnits="userSpaceOnUse">
<stop offset="0.01"/>
<stop offset="0.13" stop-opacity="0.69"/>
<stop offset="1" stop-opacity="0"/>
</linearGradient>
<linearGradient id="paint6_linear" x1="13154.5" y1="43873.1" x2="30955.9" y2="27583.5" gradientUnits="userSpaceOnUse">
<stop offset="0.01"/>
<stop offset="0.13" stop-opacity="0.69"/>
<stop offset="1" stop-opacity="0"/>
</linearGradient>
<radialGradient id="paint7_radial" cx="0" cy="0" r="1" gradientUnits="userSpaceOnUse" gradientTransform="translate(170.311 41.5567) scale(15.926 15.9137)">
<stop offset="0.34" stop-color="white"/>
<stop offset="1" stop-color="white" stop-opacity="0.39"/>
</radialGradient>
<linearGradient id="paint8_linear" x1="3955.34" y1="761.029" x2="4329.6" y2="761.029" gradientUnits="userSpaceOnUse">
<stop offset="0.01"/>
<stop offset="0.13" stop-opacity="0.69"/>
<stop offset="1" stop-opacity="0"/>
</linearGradient>
<linearGradient id="paint9_linear" x1="4380.28" y1="316.581" x2="4848.38" y2="316.581" gradientUnits="userSpaceOnUse">
<stop offset="0.01"/>
<stop offset="0.13" stop-opacity="0.69"/>
<stop offset="1" stop-opacity="0"/>
</linearGradient>
<clipPath id="clip0">
<rect width="255" height="253" fill="white"/>
</clipPath>
</defs>
</svg>
