<svg width="30" height="30" viewBox="0 0 30 30" fill="none" xmlns="http://www.w3.org/2000/svg">
<path d="M19.3687 18.7085H15.9014C14.0086 18.7085 14.0086 17.9246 14.0086 17.4059C14.0086 17.0963 14.0221 16.5611 14.0395 15.9669H18.8955C20.6287 15.9669 22.3841 14.9479 22.3841 12.999C22.3841 10.8874 21.2257 9.35457 19.63 9.35457H14.1179C14.0269 7.61269 13.5315 4.98633 10.7832 4.98633C9.43225 4.98633 8.31939 5.79824 7.87811 7.10368C7.47554 8.28912 7.4978 9.58683 7.51812 10.7316L7.52974 12.0864C7.5307 12.5277 7.53651 12.9709 7.54232 13.4141L7.55683 17.314C7.55683 22.9132 12.6876 24.7809 14.0657 24.7809C14.5466 24.7809 15.7911 24.805 16.9272 24.8263C17.8978 24.8447 18.791 24.8621 19.0813 24.8621C22.2438 24.8621 22.4896 22.6935 22.4896 22.0267C22.4896 19.7468 20.8716 18.7085 19.3687 18.7085ZM19.0832 22.9287C18.7978 22.9287 17.92 22.9112 16.9659 22.8928C15.8143 22.8716 14.5543 22.8474 14.0686 22.8474C13.4976 22.8358 9.49322 21.6755 9.49322 17.3159L9.47774 13.3909C9.47193 12.9535 9.46612 12.5161 9.46516 12.0845L9.45354 10.6997C9.43613 9.66327 9.41774 8.59299 9.71192 7.72592C9.88901 7.20045 10.2596 6.92272 10.7841 6.92272C11.6541 6.92272 12.1951 7.49173 12.2057 10.3291C12.2076 10.8623 12.6402 11.2939 13.1734 11.2939H19.631C20.0248 11.2939 20.4496 11.9471 20.4496 13.0028C20.4496 14.0238 18.9119 14.0354 18.8965 14.0354H13.1028C12.5792 14.0354 12.1515 14.4496 12.1351 14.9721C12.1051 15.9195 12.0751 16.9279 12.0751 17.4098C12.0751 18.3833 12.4476 20.6478 15.9033 20.6478H19.3706C19.7277 20.6478 20.5561 20.7823 20.5561 22.0306C20.5561 22.3664 20.5561 22.9287 19.0832 22.9287Z" fill="white"/>
<path d="M21.9157 0.000976562H8.08426C3.62698 0.000976562 0 3.62699 0 8.08426V21.9167C0 26.374 3.62698 30 8.08426 30H21.9148C26.3721 30 29.999 26.374 30 21.9167V8.08426C30 3.62699 26.373 0.000976562 21.9157 0.000976562ZM28.0646 21.9167C28.0646 25.3066 25.3056 28.0646 21.9157 28.0646H8.08426C4.6934 28.0646 1.93542 25.3066 1.93542 21.9167V8.08426C1.93542 4.69437 4.6934 1.9364 8.08426 1.9364H21.9157C25.3066 1.9364 28.0646 4.69437 28.0646 8.08426V21.9167Z" fill="white"/>
</svg>
